<svg xmlns="http://www.w3.org/2000/svg" xmlns:svg="http://www.w3.org/2000/svg" id="svg1" width="88.369385" height="66.767212" viewBox="0 0 88.369383 66.767211"><defs id="defs1"><clipPath clipPathUnits="userSpaceOnUse" id="clipPath959"><path d="M 0,2016.386 H 841.89 V 0 H 0 Z" transform="translate(-95.887502,-1011.1614)" id="path959"></path></clipPath><clipPath clipPathUnits="userSpaceOnUse" id="clipPath961"><path d="M 0,2016.386 H 841.89 V 0 H 0 Z" transform="translate(-100.95351,-1011.1614)" id="path961"></path></clipPath><clipPath clipPathUnits="userSpaceOnUse" id="clipPath963"><path d="M 0,2016.386 H 841.89 V 0 H 0 Z" transform="translate(-106.1404,-1011.1614)" id="path963"></path></clipPath><clipPath clipPathUnits="userSpaceOnUse" id="clipPath965"><path d="M 0,2016.386 H 841.89 V 0 H 0 Z" transform="translate(-154.7116,-1008.4878)" id="path965"></path></clipPath><clipPath clipPathUnits="userSpaceOnUse" id="clipPath967"><path d="M 0,2016.386 H 841.89 V 0 H 0 Z" transform="translate(-104.8371,-971.39545)" id="path967"></path></clipPath><clipPath clipPathUnits="userSpaceOnUse" id="clipPath969"><path d="M 0,2016.386 H 841.89 V 0 H 0 Z" transform="translate(-114.0475,-990.25502)" id="path969"></path></clipPath><clipPath clipPathUnits="userSpaceOnUse" id="clipPath971"><path d="M 0,2016.386 H 841.89 V 0 H 0 Z" transform="translate(-140.97051,-967.83235)" id="path971"></path></clipPath><clipPath clipPathUnits="userSpaceOnUse" id="clipPath973"><path d="M 0,2016.386 H 841.89 V 0 H 0 Z" transform="translate(-135.7729,-995.94812)" id="path973"></path></clipPath><clipPath clipPathUnits="userSpaceOnUse" id="clipPath975"><path d="M 0,2016.386 H 841.89 V 0 H 0 Z" transform="translate(-128.742,-968.75785)" id="path975"></path></clipPath><clipPath clipPathUnits="userSpaceOnUse" id="clipPath977"><path d="M 0,2016.386 H 841.89 V 0 H 0 Z" transform="translate(-120.0558,-992.26382)" id="path977"></path></clipPath></defs><g id="layer-MC0" transform="translate(-1363.3594,-1507.8544)"><path id="path3683" d="m 0,0 h 1.653 c 0.543,0 0.982,0.44 0.982,0.982 0,0.542 -0.439,0.982 -0.982,0.982 H 0 c -0.542,0 -0.982,-0.44 -0.982,-0.982 C -0.982,0.44 -0.542,0 0,0" style="fill:#ab85e8;fill-opacity:1;fill-rule:nonzero;stroke:none" transform="matrix(1.3333333,0,0,-1.3333333,1370.6779,1516.8496)" clip-path="url(#clipPath959)"></path><path id="path3684" d="m 0,0 h 1.653 c 0.543,0 0.982,0.44 0.982,0.982 0,0.542 -0.439,0.982 -0.982,0.982 H 0 c -0.542,0 -0.982,-0.44 -0.982,-0.982 C -0.982,0.44 -0.542,0 0,0" style="fill:#00d76f;fill-opacity:1;fill-rule:nonzero;stroke:none" transform="matrix(1.3333333,0,0,-1.3333333,1377.4326,1516.8496)" clip-path="url(#clipPath961)"></path><path id="path3685" d="m 0,0 h 1.653 c 0.543,0 0.982,0.44 0.982,0.982 0,0.542 -0.439,0.982 -0.982,0.982 H 0 c -0.542,0 -0.982,-0.44 -0.982,-0.982 C -0.982,0.44 -0.542,0 0,0" style="fill:#ffafcc;fill-opacity:1;fill-rule:nonzero;stroke:none" transform="matrix(1.3333333,0,0,-1.3333333,1384.3485,1516.8496)" clip-path="url(#clipPath963)"></path><path id="path3686" d="m 0,0 h -62.349 v 5.891 c 0,0.862 0.702,1.565 1.565,1.565 H -1.565 C -0.702,7.456 0,6.753 0,5.891 Z m -1.565,9.42 h -59.219 c -1.946,0 -3.529,-1.583 -3.529,-3.529 v -37.315 c 0,-1.947 1.583,-3.53 3.529,-3.53 h 11.013 v 1.964 h -11.013 c -0.863,0 -1.565,0.702 -1.565,1.566 v 29.46 H 0 v -29.46 c 0,-0.864 -0.702,-1.566 -1.565,-1.566 h -13.016 v -1.964 h 13.016 c 1.946,0 3.529,1.583 3.529,3.53 V 5.891 c 0,1.946 -1.583,3.529 -3.529,3.529" style="fill:#1b70ed;fill-opacity:1;fill-rule:nonzero;stroke:none" transform="matrix(1.3333333,0,0,-1.3333333,1449.1101,1520.4144)" clip-path="url(#clipPath965)"></path><path id="path3687" d="m 0,0 c -0.481,0 -0.883,0.378 -0.908,0.864 -0.175,3.55 0.552,11.21 4.555,14.789 1.413,1.262 3.583,0.866 4.864,-0.248 1.205,-1.046 1.795,-2.565 2.267,-3.786 0.181,-0.469 -0.645,-0.261 -0.518,-1.176 0.068,-0.498 -0.995,0.051 -1.176,0.519 -0.423,1.087 -0.9,2.321 -1.765,3.071 C 6.645,14.62 5.495,14.865 4.859,14.297 1.621,11.402 0.722,4.731 0.908,0.954 0.933,0.453 0.547,0.026 0.046,0.001 0.03,0 0.015,0 0,0" style="fill:#68c5ea;fill-opacity:1;fill-rule:nonzero;stroke:none" transform="matrix(1.3333333,0,0,-1.3333333,1382.6107,1569.8708)" clip-path="url(#clipPath967)"></path><path id="path3688" d="m 0,0 h 0.005 z m -3.021,5.563 c -0.123,0 -0.244,-0.011 -0.365,-0.036 -1.16,-0.229 -2.048,-1.562 -2.206,-2.666 -0.132,-0.94 0.087,-1.887 0.619,-2.668 0.269,-0.394 0.732,-0.899 1.398,-1.051 0.941,-0.215 2.198,0.389 2.809,1.347 0.977,1.532 0.205,3.828 -1.084,4.706 -0.354,0.24 -0.765,0.368 -1.171,0.368 m -0.167,-8.28 c -0.269,0 -0.535,0.028 -0.793,0.088 -0.981,0.224 -1.843,0.847 -2.492,1.798 -0.789,1.155 -1.114,2.556 -0.918,3.947 0.247,1.732 1.611,3.789 3.652,4.195 0.99,0.196 2.051,-0.028 2.912,-0.613 C 1.204,5.314 2.318,1.947 0.766,-0.489 -0.1,-1.849 -1.698,-2.717 -3.188,-2.717" style="fill:#68c5ea;fill-opacity:1;fill-rule:nonzero;stroke:none" transform="matrix(1.3333333,0,0,-1.3333333,1394.8913,1544.7247)" clip-path="url(#clipPath969)"></path><path id="path3689" d="m 0,0 c -0.492,0 -0.897,0.393 -0.908,0.888 -0.299,13.233 -2.748,16.623 -4.182,17.466 -0.675,0.398 -1.416,0.391 -2.201,-0.025 -1.593,-0.838 -4.022,-5.42 -4.738,-8.921 -0.101,-0.493 -0.582,-0.811 -1.073,-0.708 -0.491,0.1 -0.809,0.58 -0.708,1.072 0.671,3.28 3.209,8.87 5.66,10.158 1.822,0.961 3.278,0.407 3.982,-0.01 C -1.042,18.082 0.666,11.693 0.909,0.929 0.92,0.428 0.522,0.011 0.021,0 Z" style="fill:#e63a46;fill-opacity:1;fill-rule:nonzero;stroke:none" transform="matrix(1.3333333,0,0,-1.3333333,1430.7886,1574.6216)" clip-path="url(#clipPath971)"></path><path id="path3690" d="m 0,0 c -0.905,0 -1.777,-0.365 -2.463,-1.033 -0.372,-0.363 -0.832,-0.966 -0.908,-1.77 -0.104,-1.121 0.663,-2.485 1.71,-3.039 0.828,-0.439 1.664,-0.309 2.218,-0.123 0.989,0.332 1.86,1.09 2.272,1.978 0.275,0.592 0.33,1.274 0.152,1.873 C 2.599,-0.822 1.202,-0.025 0.073,0 H 0 m -0.451,-7.954 c -0.726,0 -1.428,0.17 -2.062,0.506 -1.692,0.898 -2.839,2.967 -2.667,4.814 0.1,1.071 0.601,2.075 1.448,2.902 1.056,1.029 2.403,1.587 3.844,1.548 C 1.869,1.78 4.084,0.569 4.724,-1.597 5.026,-2.615 4.936,-3.765 4.478,-4.752 3.862,-6.077 2.582,-7.201 1.136,-7.688 0.606,-7.865 0.072,-7.954 -0.451,-7.954" style="fill:#e63a46;fill-opacity:1;fill-rule:nonzero;stroke:none" transform="matrix(1.3333333,0,0,-1.3333333,1423.8585,1537.1339)" clip-path="url(#clipPath973)"></path><path id="path3691" d="m 0,0 c -0.486,0 -0.889,0.386 -0.908,0.875 -0.185,5.086 -1.201,10.077 -3.019,14.831 -0.365,0.954 -0.813,2.04 -1.522,2.865 -0.666,0.774 -1.535,1.231 -2.334,1.231 h -0.048 c -1.057,-0.024 -2.021,-0.823 -2.643,-1.488 -1.741,-1.86 -2.696,-4.317 -3.332,-6.248 -1.299,-3.943 -1.78,-7.419 -1.467,-10.63 0.048,-0.499 -0.318,-0.944 -0.818,-0.992 -0.501,-0.048 -0.943,0.317 -0.992,0.817 -0.336,3.466 0.171,7.187 1.552,11.375 0.694,2.108 1.746,4.8 3.73,6.92 1.251,1.338 2.573,2.032 3.929,2.063 1.348,0.049 2.754,-0.647 3.801,-1.864 0.899,-1.045 1.422,-2.303 1.841,-3.399 C -0.34,11.414 0.716,6.228 0.909,0.941 0.928,0.44 0.535,0.019 0.033,0 Z" style="fill:#ee9b00;fill-opacity:1;fill-rule:nonzero;stroke:none" transform="matrix(1.3333333,0,0,-1.3333333,1414.4839,1573.3876)" clip-path="url(#clipPath975)"></path><path id="path3692" d="M 0,0 C 2.08,-0.992 4.844,0.325 5.748,2.078 6.08,2.723 6.149,3.467 5.934,4.12 5.454,5.579 3.673,6.481 2.227,6.509 H 2.134 C 0.97,6.509 -0.145,6.091 -1.016,5.328 -1.476,4.922 -2.046,4.252 -2.137,3.368 -2.266,2.135 -1.307,0.624 0,0 m 1.582,-2.167 c -0.799,0 -1.604,0.163 -2.365,0.526 h -0.001 c -2.01,0.961 -3.369,3.196 -3.161,5.196 0.12,1.164 0.719,2.249 1.73,3.138 C -0.98,7.778 0.637,8.36 2.262,8.325 4.313,8.285 6.903,6.997 7.662,4.686 8.026,3.575 7.917,2.321 7.364,1.246 6.369,-0.682 3.997,-2.167 1.582,-2.167" style="fill:#ee9b00;fill-opacity:1;fill-rule:nonzero;stroke:none" transform="matrix(1.3333333,0,0,-1.3333333,1402.9023,1542.0463)" clip-path="url(#clipPath977)"></path></g></svg>