<svg xmlns:xlink="http://www.w3.org/1999/xlink" xmlns="http://www.w3.org/2000/svg" xmlns:svg="http://www.w3.org/2000/svg" id="svg1" width="242.75769" height="403.51855" viewBox="0 0 242.75769 403.51855"><defs id="defs1"><clipPath clipPathUnits="userSpaceOnUse" id="clipPath16"><path d="M 0,2016.386 H 841.89 V 0 H 0 Z" transform="translate(-196.1287,-736.86834)" id="path16"></path></clipPath><radialGradient fx="0" fy="0" cx="0" cy="0" r="1" gradientUnits="userSpaceOnUse" gradientTransform="matrix(101.0199,8.3504124,8.3985691,100.44065,227.45822,1058.4368)" spreadMethod="pad" id="radialGradient44"><stop style="stop-opacity:1;stop-color:#8638f9" offset="0" id="stop41"></stop><stop style="stop-opacity:1;stop-color:#34157f" offset="0.499339" id="stop42"></stop><stop style="stop-opacity:1;stop-color:#040038" offset="0.86944" id="stop43"></stop><stop style="stop-opacity:1;stop-color:#040038" offset="1" id="stop44"></stop></radialGradient><radialGradient fx="0" fy="0" cx="0" cy="0" r="1" gradientUnits="userSpaceOnUse" gradientTransform="matrix(81.07354,-60.500385,73.401916,69.511314,-7.6543593,839.74725)" spreadMethod="pad" id="radialGradient49"><stop style="stop-opacity:1;stop-color:#68c5ea" offset="0" id="stop45"></stop><stop style="stop-opacity:1;stop-color:#68c5ea" offset="0.00611772" id="stop46"></stop><stop style="stop-opacity:1;stop-color:#2169a1" offset="0.37192" id="stop47"></stop><stop style="stop-opacity:1;stop-color:#06063e" offset="0.849186" id="stop48"></stop><stop style="stop-opacity:1;stop-color:#040038" offset="1" id="stop49"></stop></radialGradient><radialGradient fx="0" fy="0" cx="0" cy="0" r="1" gradientUnits="userSpaceOnUse" gradientTransform="matrix(101.0199,8.3504124,8.3985691,100.44065,253.41646,845.84375)" spreadMethod="pad" id="radialGradient53"><stop style="stop-opacity:1;stop-color:#ff63ba" offset="0" id="stop50"></stop><stop style="stop-opacity:1;stop-color:#471a5b" offset="0.604869" id="stop51"></stop><stop style="stop-opacity:1;stop-color:#040038" offset="0.86944" id="stop52"></stop><stop style="stop-opacity:1;stop-color:#040038" offset="1" id="stop53"></stop></radialGradient><radialGradient fx="0" fy="0" cx="0" cy="0" r="1" gradientUnits="userSpaceOnUse" gradientTransform="matrix(101.0199,8.3504124,8.3985691,100.44065,23.602167,1043.0723)" spreadMethod="pad" id="radialGradient57"><stop style="stop-opacity:1;stop-color:#f97203" offset="0" id="stop54"></stop><stop style="stop-opacity:1;stop-color:#3d1a2c" offset="0.556651" id="stop55"></stop><stop style="stop-opacity:1;stop-color:#040038" offset="0.86944" id="stop56"></stop><stop style="stop-opacity:1;stop-color:#040038" offset="1" id="stop57"></stop></radialGradient><radialGradient fx="0" fy="0" cx="0" cy="0" r="1" gradientUnits="userSpaceOnUse" gradientTransform="matrix(101.0199,8.3504124,8.3985691,100.44065,122.78518,694.31445)" spreadMethod="pad" id="radialGradient61"><stop style="stop-opacity:1;stop-color:#00d76f" offset="0" id="stop58"></stop><stop style="stop-opacity:1;stop-color:#032d44" offset="0.578476" id="stop59"></stop><stop style="stop-opacity:1;stop-color:#040038" offset="0.86944" id="stop60"></stop><stop style="stop-opacity:1;stop-color:#040038" offset="1" id="stop61"></stop></radialGradient><radialGradient xlink:href="#radialGradient61" id="radialGradient3887" gradientUnits="userSpaceOnUse" gradientTransform="matrix(134.6932,-11.133883,11.198092,-133.92086,1390.1731,2164.962)" cx="0" cy="0" fx="0" fy="0" r="1" spreadMethod="pad"></radialGradient><radialGradient xlink:href="#radialGradient57" id="radialGradient3888" gradientUnits="userSpaceOnUse" gradientTransform="matrix(134.6932,-11.133883,11.198092,-133.92086,1257.9291,1699.9516)" cx="0" cy="0" fx="0" fy="0" r="1" spreadMethod="pad"></radialGradient><radialGradient xlink:href="#radialGradient53" id="radialGradient3889" gradientUnits="userSpaceOnUse" gradientTransform="matrix(134.6932,-11.133883,11.198092,-133.92086,1564.3481,1962.923)" cx="0" cy="0" fx="0" fy="0" r="1" spreadMethod="pad"></radialGradient><radialGradient xlink:href="#radialGradient49" id="radialGradient3890" gradientUnits="userSpaceOnUse" gradientTransform="matrix(108.09805,80.667178,97.869219,-92.68175,1216.2537,1971.0516)" cx="0" cy="0" fx="0" fy="0" r="1" spreadMethod="pad"></radialGradient><radialGradient xlink:href="#radialGradient44" id="radialGradient3891" gradientUnits="userSpaceOnUse" gradientTransform="matrix(134.6932,-11.133883,11.198092,-133.92086,1529.7371,1679.4656)" cx="0" cy="0" fx="0" fy="0" r="1" spreadMethod="pad"></radialGradient></defs><g id="layer-MC0" transform="translate(-1269.9325,-1704.7048)"><path id="path3755" d="m 0,0 h -144.98 c -10.242,0 -18.544,8.302 -18.544,18.544 v 265.551 c 0,10.241 8.302,18.544 18.544,18.544 H 0 c 10.241,0 18.543,-8.303 18.543,-18.544 V 18.544 C 18.543,8.302 10.241,0 0,0" style="fill:#040038;fill-opacity:1;fill-rule:nonzero;stroke:none" transform="matrix(1.3333333,0,0,-1.3333333,1487.9645,2108.2235)" clip-path="url(#clipPath16)"></path><path id="path3763" d="m 1401.9369,1704.7053 c 6.2853,23.3133 18.876,45.6853 37.672,64.372 v 0 c 21.0106,20.8906 46.6626,34.0746 73.0813,39.4066 v 0 -79.0546 c 0,-13.6547 -11.0707,-24.724 -24.7253,-24.724 v 0 z" style="fill:url(#radialGradient3891);stroke:none;stroke-width:1.33333"></path><path id="path3764" d="m 1269.9329,2083.4999 c 0,3.8294 0.8706,7.4547 2.4253,10.6907 v 0 c 44.9187,-23.1627 74.4907,-73.7493 71.1387,-130.5613 v 0 c -3.052,-51.7134 -32.588,-95.1307 -73.564,-115.9174 v 0 z" style="fill:url(#radialGradient3890);stroke:none;stroke-width:1.33333"></path><path id="path3765" d="m 1467.2449,1866.3759 c -49.7774,49.492 -46.6547,132.8374 6.9733,186.16 v 0 c 11.624,11.556 24.6653,20.7534 38.472,27.5667 v 0 -242 c -16.74,5.7747 -32.2813,15.1853 -45.4453,28.2733" style="fill:url(#radialGradient3889);stroke:none;stroke-width:1.33333"></path><path id="path3766" d="m 1294.6569,1704.7053 c -13.6547,0 -24.724,11.0693 -24.724,24.724 v 0 102.2306 c 31.4266,-0.4973 61.9426,-12.1386 85.1,-35.1626 v 0 c 24.924,-24.7814 36.5853,-58.0534 35.284,-91.792 v 0 z" style="fill:url(#radialGradient3888);stroke:none;stroke-width:1.33333"></path><path id="path3767" d="m 1293.0689,2068.4159 c -8.1507,8.104 -14.8854,17.12 -20.2107,26.76 v 0 c 4.1693,7.7667 12.3667,13.0467 21.7987,13.0467 v 0 h 193.308 c 5.4226,0 10.436,-1.7453 14.512,-4.704 v 0 c -6.0454,-10.004 -13.4374,-19.4827 -22.1747,-28.168 v 0 c -28.12,-27.96 -64.552,-42.112 -100.016,-42.1147 v 0 c -32.1693,0 -63.5413,11.6387 -87.2173,35.18" style="fill:url(#radialGradient3887);stroke:none;stroke-width:1.33333"></path></g></svg>