<svg xmlns:xlink="http://www.w3.org/1999/xlink" xmlns="http://www.w3.org/2000/svg" xmlns:svg="http://www.w3.org/2000/svg" id="svg1" width="242.75732" height="403.51855" viewBox="0 0 242.75732 403.51855"><defs id="defs1"><clipPath clipPathUnits="userSpaceOnUse" id="clipPath14"><path d="M 0,2016.386 H 841.89 V 0 H 0 Z" transform="translate(-394.11601,-736.86834)" id="path14"></path></clipPath><radialGradient fx="0" fy="0" cx="0" cy="0" r="1" gradientUnits="userSpaceOnUse" gradientTransform="matrix(101.0199,-8.3504124,8.3985691,-100.44065,425.99454,717.93866)" spreadMethod="pad" id="radialGradient65"><stop style="stop-opacity:1;stop-color:#8638f9" offset="0" id="stop62"></stop><stop style="stop-opacity:1;stop-color:#34157f" offset="0.499339" id="stop63"></stop><stop style="stop-opacity:1;stop-color:#040038" offset="0.86944" id="stop64"></stop><stop style="stop-opacity:1;stop-color:#040038" offset="1" id="stop65"></stop></radialGradient><radialGradient fx="0" fy="0" cx="0" cy="0" r="1" gradientUnits="userSpaceOnUse" gradientTransform="matrix(81.07354,60.500385,73.401916,-69.511314,190.88197,936.62817)" spreadMethod="pad" id="radialGradient70"><stop style="stop-opacity:1;stop-color:#68c5ea" offset="0" id="stop66"></stop><stop style="stop-opacity:1;stop-color:#68c5ea" offset="0.00611772" id="stop67"></stop><stop style="stop-opacity:1;stop-color:#2169a1" offset="0.37192" id="stop68"></stop><stop style="stop-opacity:1;stop-color:#06063e" offset="0.849186" id="stop69"></stop><stop style="stop-opacity:1;stop-color:#040038" offset="1" id="stop70"></stop></radialGradient><radialGradient fx="0" fy="0" cx="0" cy="0" r="1" gradientUnits="userSpaceOnUse" gradientTransform="matrix(101.0199,-8.3504124,8.3985691,-100.44065,451.95279,930.53174)" spreadMethod="pad" id="radialGradient74"><stop style="stop-opacity:1;stop-color:#ff63ba" offset="0" id="stop71"></stop><stop style="stop-opacity:1;stop-color:#471a5b" offset="0.604869" id="stop72"></stop><stop style="stop-opacity:1;stop-color:#040038" offset="0.86944" id="stop73"></stop><stop style="stop-opacity:1;stop-color:#040038" offset="1" id="stop74"></stop></radialGradient><radialGradient fx="0" fy="0" cx="0" cy="0" r="1" gradientUnits="userSpaceOnUse" gradientTransform="matrix(101.0199,-8.3504124,8.3985691,-100.44065,222.1385,733.3031)" spreadMethod="pad" id="radialGradient78"><stop style="stop-opacity:1;stop-color:#f97203" offset="0" id="stop75"></stop><stop style="stop-opacity:1;stop-color:#3d1a2c" offset="0.556651" id="stop76"></stop><stop style="stop-opacity:1;stop-color:#040038" offset="0.86944" id="stop77"></stop><stop style="stop-opacity:1;stop-color:#040038" offset="1" id="stop78"></stop></radialGradient><radialGradient fx="0" fy="0" cx="0" cy="0" r="1" gradientUnits="userSpaceOnUse" gradientTransform="matrix(101.0199,-8.3504124,8.3985691,-100.44065,321.3215,1082.061)" spreadMethod="pad" id="radialGradient82"><stop style="stop-opacity:1;stop-color:#00d76f" offset="0" id="stop79"></stop><stop style="stop-opacity:1;stop-color:#032d44" offset="0.578476" id="stop80"></stop><stop style="stop-opacity:1;stop-color:#040038" offset="0.86944" id="stop81"></stop><stop style="stop-opacity:1;stop-color:#040038" offset="1" id="stop82"></stop></radialGradient><radialGradient xlink:href="#radialGradient82" id="radialGradient3882" gradientUnits="userSpaceOnUse" gradientTransform="matrix(134.6932,11.133883,11.198092,133.92086,1654.8882,1647.9666)" cx="0" cy="0" fx="0" fy="0" r="1" spreadMethod="pad"></radialGradient><radialGradient xlink:href="#radialGradient78" id="radialGradient3883" gradientUnits="userSpaceOnUse" gradientTransform="matrix(134.6932,11.133883,11.198092,133.92086,1522.6442,2112.9772)" cx="0" cy="0" fx="0" fy="0" r="1" spreadMethod="pad"></radialGradient><radialGradient xlink:href="#radialGradient74" id="radialGradient3884" gradientUnits="userSpaceOnUse" gradientTransform="matrix(134.6932,11.133883,11.198092,133.92086,1829.0632,1850.0056)" cx="0" cy="0" fx="0" fy="0" r="1" spreadMethod="pad"></radialGradient><radialGradient xlink:href="#radialGradient70" id="radialGradient3885" gradientUnits="userSpaceOnUse" gradientTransform="matrix(108.09805,-80.667178,97.869219,92.68175,1480.9688,1841.8771)" cx="0" cy="0" fx="0" fy="0" r="1" spreadMethod="pad"></radialGradient><radialGradient xlink:href="#radialGradient65" id="radialGradient3886" gradientUnits="userSpaceOnUse" gradientTransform="matrix(134.6932,11.133883,11.198092,133.92086,1794.4522,2133.4631)" cx="0" cy="0" fx="0" fy="0" r="1" spreadMethod="pad"></radialGradient></defs><g id="layer-MC0" transform="translate(-1533.9156,-1704.7048)"><path id="path3754" d="m 0,0 h -144.981 c -10.241,0 -18.543,8.302 -18.543,18.544 v 265.551 c 0,10.241 8.302,18.544 18.543,18.544 H 0 c 10.241,0 18.543,-8.303 18.543,-18.544 V 18.544 C 18.543,8.302 10.241,0 0,0" style="fill:#040038;fill-opacity:1;fill-rule:nonzero;stroke:none" transform="matrix(1.3333333,0,0,-1.3333333,1751.9475,2108.2235)" clip-path="url(#clipPath14)"></path><path id="path3768" d="m 1704.3235,2043.8506 c -18.7946,18.6867 -31.3853,41.0587 -37.6706,64.372 v 0 h 85.2946 c 13.6547,0 24.7254,-11.068 24.7254,-24.7227 v 0 -78.904 c -26.16,5.424 -51.532,18.556 -72.3494,39.2547" style="fill:url(#radialGradient3886);stroke:none;stroke-width:1.33333"></path><path id="path3769" d="m 1533.9155,1729.4293 v 236.156 c 41.356,-20.64 71.2267,-64.2654 74.296,-116.2867 v 0 c 3.368,-57.06 -26.476,-107.8387 -71.7253,-130.86 v 0 c -1.6453,3.3107 -2.5707,7.0427 -2.5707,10.9907" style="fill:url(#radialGradient3885);stroke:none;stroke-width:1.33333"></path><path id="path3770" d="m 1738.9342,1760.3933 c -53.6293,53.3213 -56.752,136.668 -6.9747,186.16 v 0 c 12.9734,12.8973 28.252,22.2226 44.7134,28.0173 v 0 -241.3813 c -13.5347,6.7773 -26.3214,15.852 -37.7387,27.204" style="fill:url(#radialGradient3884);stroke:none;stroke-width:1.33333"></path><path id="path3771" d="m 1533.9155,2083.4999 c 0,13.6547 11.0694,24.7227 24.724,24.7227 v 0 h 96.392 c 1.3027,-33.7387 -10.3586,-67.0107 -35.284,-91.792 v 0 c -23.336,-23.2027 -54.1493,-34.8453 -85.832,-35.1733 v 0 z" style="fill:url(#radialGradient3883);stroke:none;stroke-width:1.33333"></path><path id="path3772" d="m 1558.6395,1704.7053 c -9.16,0 -17.1573,4.9826 -21.4293,12.384 v 0 c 5.3813,9.892 12.2347,19.132 20.5747,27.424 v 0 c 49.7773,49.492 133.604,46.3866 187.2333,-6.9347 v 0 c 8.624,-8.5747 15.944,-17.9293 21.9467,-27.792 v 0 c -4.1627,-3.188 -9.3694,-5.0813 -15.0174,-5.0813 v 0 z" style="fill:url(#radialGradient3882);stroke:none;stroke-width:1.33333"></path></g></svg>