<svg xmlns:xlink="http://www.w3.org/1999/xlink" xmlns="http://www.w3.org/2000/svg" xmlns:svg="http://www.w3.org/2000/svg" id="svg1" width="98.074097" height="79.2052" viewBox="0 0 98.074095 79.2052"><defs id="defs1"><linearGradient x1="0" y1="0" x2="1" y2="0" gradientUnits="userSpaceOnUse" gradientTransform="matrix(8.9590683,-8.9590683,-8.9590683,-8.9590683,340.66974,985.74554)" spreadMethod="pad" id="linearGradient980"><stop style="stop-opacity:1;stop-color:#68c5ea" offset="0" id="stop977"></stop><stop style="stop-opacity:1;stop-color:#a1a0d8" offset="0.0508846" id="stop978"></stop><stop style="stop-opacity:1;stop-color:#ff63ba" offset="0.415447" id="stop979"></stop><stop style="stop-opacity:1;stop-color:#ff63ba" offset="1" id="stop980"></stop></linearGradient><clipPath clipPathUnits="userSpaceOnUse" id="clipPath982"><path d="M 0,2016.386 H 841.89 V 0 H 0 Z" transform="translate(-315.59801,-1008.9526)" id="path982"></path></clipPath><clipPath clipPathUnits="userSpaceOnUse" id="clipPath984"><path d="M 0,2016.386 H 841.89 V 0 H 0 Z" transform="translate(-328.05561,-995.67812)" id="path984"></path></clipPath><linearGradient x1="0" y1="0" x2="1" y2="0" gradientUnits="userSpaceOnUse" gradientTransform="matrix(16.484722,-28.552376,-28.552376,-16.484722,336.13287,996.70874)" spreadMethod="pad" id="linearGradient987"><stop style="stop-opacity:1;stop-color:#68c5ea" offset="0" id="stop984"></stop><stop style="stop-opacity:1;stop-color:#68c5ea" offset="0.110842" id="stop985"></stop><stop style="stop-opacity:1;stop-color:#ff63ba" offset="0.525298" id="stop986"></stop><stop style="stop-opacity:1;stop-color:#ff63ba" offset="1" id="stop987"></stop></linearGradient><linearGradient x1="0" y1="0" x2="1" y2="0" gradientUnits="userSpaceOnUse" gradientTransform="matrix(-2.3415596,-4.0557003,-4.0557003,2.3415596,295.11954,988.39337)" spreadMethod="pad" id="linearGradient991"><stop style="stop-opacity:1;stop-color:#68c5ea" offset="0" id="stop988"></stop><stop style="stop-opacity:1;stop-color:#68c5ea" offset="0.110842" id="stop989"></stop><stop style="stop-opacity:1;stop-color:#00d76f" offset="0.525298" id="stop990"></stop><stop style="stop-opacity:1;stop-color:#00d76f" offset="1" id="stop991"></stop></linearGradient><linearGradient x1="0" y1="0" x2="1" y2="0" gradientUnits="userSpaceOnUse" gradientTransform="matrix(-4.2779627,-7.4096484,-7.4096484,4.2779627,299.96054,986.62787)" spreadMethod="pad" id="linearGradient995"><stop style="stop-opacity:1;stop-color:#68c5ea" offset="0" id="stop992"></stop><stop style="stop-opacity:1;stop-color:#68c5ea" offset="0.110842" id="stop993"></stop><stop style="stop-opacity:1;stop-color:#00d76f" offset="0.525298" id="stop994"></stop><stop style="stop-opacity:1;stop-color:#00d76f" offset="1" id="stop995"></stop></linearGradient><linearGradient x1="0" y1="0" x2="1" y2="0" gradientUnits="userSpaceOnUse" gradientTransform="matrix(-4.2779627,-7.4096484,-7.4096484,4.2779627,299.96054,983.26385)" spreadMethod="pad" id="linearGradient999"><stop style="stop-opacity:1;stop-color:#68c5ea" offset="0" id="stop996"></stop><stop style="stop-opacity:1;stop-color:#68c5ea" offset="0.110842" id="stop997"></stop><stop style="stop-opacity:1;stop-color:#00d76f" offset="0.525298" id="stop998"></stop><stop style="stop-opacity:1;stop-color:#00d76f" offset="1" id="stop999"></stop></linearGradient><linearGradient x1="0" y1="0" x2="1" y2="0" gradientUnits="userSpaceOnUse" gradientTransform="matrix(-4.2779627,-7.4096484,-7.4096484,4.2779627,299.96054,979.82135)" spreadMethod="pad" id="linearGradient1003"><stop style="stop-opacity:1;stop-color:#68c5ea" offset="0" id="stop1000"></stop><stop style="stop-opacity:1;stop-color:#68c5ea" offset="0.110842" id="stop1001"></stop><stop style="stop-opacity:1;stop-color:#00d76f" offset="0.525298" id="stop1002"></stop><stop style="stop-opacity:1;stop-color:#00d76f" offset="1" id="stop1003"></stop></linearGradient><linearGradient x1="0" y1="0" x2="1" y2="0" gradientUnits="userSpaceOnUse" gradientTransform="matrix(-4.2779627,-7.4096484,-7.4096484,4.2779627,299.96054,976.45734)" spreadMethod="pad" id="linearGradient1007"><stop style="stop-opacity:1;stop-color:#68c5ea" offset="0" id="stop1004"></stop><stop style="stop-opacity:1;stop-color:#68c5ea" offset="0.110842" id="stop1005"></stop><stop style="stop-opacity:1;stop-color:#00d76f" offset="0.525298" id="stop1006"></stop><stop style="stop-opacity:1;stop-color:#00d76f" offset="1" id="stop1007"></stop></linearGradient><linearGradient x1="0" y1="0" x2="1" y2="0" gradientUnits="userSpaceOnUse" gradientTransform="matrix(-17.378033,-30.099634,-30.099634,17.378033,307.12613,996.31934)" spreadMethod="pad" id="linearGradient1011"><stop style="stop-opacity:1;stop-color:#68c5ea" offset="0" id="stop1008"></stop><stop style="stop-opacity:1;stop-color:#68c5ea" offset="0.110842" id="stop1009"></stop><stop style="stop-opacity:1;stop-color:#00d76f" offset="0.525298" id="stop1010"></stop><stop style="stop-opacity:1;stop-color:#00d76f" offset="1" id="stop1011"></stop></linearGradient><linearGradient xlink:href="#linearGradient1011" id="linearGradient3744" gradientUnits="userSpaceOnUse" gradientTransform="matrix(-23.17071,40.132844,-40.132844,-23.17071,1652.3294,1536.6389)" x1="0" y1="0" x2="1" y2="0" spreadMethod="pad"></linearGradient><linearGradient xlink:href="#linearGradient1007" id="linearGradient3745" gradientUnits="userSpaceOnUse" gradientTransform="matrix(-5.7039501,9.879531,-9.879531,-5.7039501,1642.7753,1563.1216)" x1="0" y1="0" x2="1" y2="0" spreadMethod="pad"></linearGradient><linearGradient xlink:href="#linearGradient1003" id="linearGradient3746" gradientUnits="userSpaceOnUse" gradientTransform="matrix(-5.7039501,9.879531,-9.879531,-5.7039501,1642.7753,1558.6363)" x1="0" y1="0" x2="1" y2="0" spreadMethod="pad"></linearGradient><linearGradient xlink:href="#linearGradient999" id="linearGradient3747" gradientUnits="userSpaceOnUse" gradientTransform="matrix(-5.7039501,9.879531,-9.879531,-5.7039501,1642.7753,1554.0463)" x1="0" y1="0" x2="1" y2="0" spreadMethod="pad"></linearGradient><linearGradient xlink:href="#linearGradient995" id="linearGradient3748" gradientUnits="userSpaceOnUse" gradientTransform="matrix(-5.7039501,9.879531,-9.879531,-5.7039501,1642.7753,1549.5609)" x1="0" y1="0" x2="1" y2="0" spreadMethod="pad"></linearGradient><linearGradient xlink:href="#linearGradient991" id="linearGradient3749" gradientUnits="userSpaceOnUse" gradientTransform="matrix(-3.1220794,5.4076003,-5.4076003,-3.1220794,1636.3206,1547.2069)" x1="0" y1="0" x2="1" y2="0" spreadMethod="pad"></linearGradient><linearGradient xlink:href="#linearGradient987" id="linearGradient3750" gradientUnits="userSpaceOnUse" gradientTransform="matrix(21.979629,38.069834,-38.069834,21.979629,1691.005,1536.1197)" x1="0" y1="0" x2="1" y2="0" spreadMethod="pad"></linearGradient><linearGradient xlink:href="#linearGradient980" id="linearGradient3751" gradientUnits="userSpaceOnUse" gradientTransform="matrix(11.945424,11.945424,-11.945424,11.945424,1697.0542,1550.7373)" x1="0" y1="0" x2="1" y2="0" spreadMethod="pad"></linearGradient></defs><g id="layer-MC0" transform="translate(-1625.1546,-1497.5647)"><path id="path3693" d="m 1702.6346,1548.2954 c -11.2494,0.9 -10.052,17.384 0.9973,16.8693 v 0 c 11.196,-1.4546 9.384,-16.8853 -0.4373,-16.8866 v 0 c -0.184,0 -0.3707,0.01 -0.56,0.017 m -0.4507,3.348 c 5.2787,-1.82 9.5533,7.6333 1.652,10.484 v 0 c -8.9533,-0.9467 -6.8787,-10.1373 -1.652,-10.484" style="fill:url(#linearGradient3751);stroke:none;stroke-width:1.33333"></path><path id="path3694" d="M 0,0 C -0.001,0.305 0.117,0.591 0.332,0.807 0.547,1.022 0.833,1.141 1.139,1.142 L 8.3,1.154 h 10e-4 c 0.627,0 1.139,-0.51 1.141,-1.138 L 9.456,-7.463 C 9.457,-7.767 9.339,-8.054 9.124,-8.27 8.909,-8.485 8.623,-8.604 8.318,-8.604 L 1.156,-8.617 C 0.528,-8.618 0.015,-8.106 0.013,-7.478 Z m 1.09,-10.42 7.293,-0.013 h 0.006 c 0.77,0 1.495,0.3 2.041,0.845 0.547,0.545 0.849,1.27 0.85,2.043 l 0.014,7.587 C 11.297,1.636 10.001,2.936 8.406,2.939 L 1.114,2.952 H 1.108 c -1.592,0 -2.889,-1.294 -2.892,-2.888 L -1.797,-7.523 C -1.8,-9.117 -0.505,-10.417 1.09,-10.42" style="fill:#68c5ea;fill-opacity:1;fill-rule:nonzero;stroke:none" transform="matrix(1.3333333,0,0,-1.3333333,1663.6253,1519.7946)" clip-path="url(#clipPath982)"></path><path id="path3695" d="m 0,0 -15.158,0.007 c -1.068,0.001 -1.941,0.873 -1.945,1.942 l -0.041,15.033 c -0.002,0.52 0.199,1.009 0.566,1.377 0.367,0.369 0.855,0.573 1.375,0.573 l 15.092,0.025 h 0.003 c 1.066,0 1.938,-0.865 1.946,-1.929 L 1.947,1.959 C 1.95,1.435 1.749,0.943 1.381,0.572 1.014,0.204 0.525,0 0.003,0 Z m -3.359,-4.572 v 2.746 h 2.079 l 0.023,-4.322 c -0.651,0.559 -1.358,1.089 -2.102,1.576 m -8.578,-0.035 -1.913,-1.511 -0.024,4.273 1.975,-0.01 z m -1.869,29.941 1.894,-1.412 0.039,-3.035 -1.962,-0.012 z m 10.358,-1.449 2.075,1.518 0.052,-4.511 -2.174,-0.033 z M 0.597,-6.012 v 4.222 c 0.556,0.125 1.032,0.326 1.446,0.584 L 3.39,-2.454 4.704,-0.917 3.379,0.31 c 0.205,0.443 0.349,0.942 0.413,1.512 h 3.763 c 0.584,-1.431 1.64,-1.689 2.433,-1.641 0.619,0.035 1.136,0.237 1.533,0.599 0.688,0.622 0.93,1.518 0.649,2.396 -0.292,0.909 -1.091,1.567 -2.036,1.675 v 0 C 9.261,4.952 8.54,4.638 7.986,3.923 7.919,3.835 7.856,3.758 7.794,3.687 H 3.755 v 1.56 h 3.634 c 0.281,0 0.51,0.229 0.51,0.51 v 0.928 c 0,0.262 -0.19,0.452 -0.451,0.452 H 3.78 V 8.836 L 7.759,8.86 c 1.246,-1.403 2.449,-1.207 3.239,-0.797 0.923,0.481 1.383,1.44 1.17,2.444 -0.219,1.043 -1.083,1.789 -2.149,1.858 -1.135,0.07 -1.976,-0.48 -2.442,-1.602 H 3.764 v 1.589 h 3.371 c 0.321,0 0.581,0.261 0.581,0.582 v 0.827 c 0,0.296 -0.207,0.503 -0.503,0.503 H 3.744 v 1.264 h 4.143 l 0.317,-0.327 c 0.636,-0.676 1.443,-0.886 2.397,-0.618 0.837,0.234 1.441,0.858 1.616,1.667 0.182,0.854 -0.14,1.748 -0.842,2.334 -0.646,0.539 -1.44,0.715 -2.178,0.48 C 8.466,18.832 7.893,18.233 7.64,17.445 H 3.755 c -0.054,0.475 -0.225,0.941 -0.51,1.391 -0.671,1.049 -1.587,1.73 -2.729,2.027 0.059,1.45 0.06,2.962 0.003,4.497 0.674,0.254 1.207,0.746 1.475,1.369 0.257,0.596 0.239,1.256 -0.051,1.856 -0.353,0.728 -0.987,1.209 -1.738,1.319 -0.804,0.114 -1.638,-0.2 -2.229,-0.846 C -2.518,28.516 -2.661,27.797 -2.45,26.92 L -5.044,24.993 C -5.23,24.855 -5.342,24.634 -5.342,24.402 V 20.87 h -1.399 v 3.785 c 0.614,0.592 0.731,1.292 0.33,1.978 -0.325,0.552 -0.938,0.847 -1.566,0.75 -0.619,-0.095 -1.093,-0.539 -1.235,-1.158 -0.097,-0.428 -0.072,-1.051 0.593,-1.614 v -3.739 h -1.363 v 3.611 c 0,0.266 -0.121,0.498 -0.343,0.656 l -2.416,1.679 c -0.006,0.146 -0.001,0.285 0.015,0.418 0.127,0.94 -0.164,1.696 -0.864,2.247 -0.861,0.675 -2.178,0.606 -2.999,-0.159 -0.651,-0.608 -0.913,-1.458 -0.701,-2.275 0.206,-0.79 0.824,-1.421 1.629,-1.677 v -4.496 c -1.816,-0.477 -2.954,-1.608 -3.385,-3.366 h -3.809 c -0.318,0.894 -0.934,1.44 -1.833,1.625 -1.146,0.24 -2.343,-0.524 -2.668,-1.702 -0.358,-1.306 0.295,-2.502 1.589,-2.906 0.812,-0.256 1.983,-0.049 2.557,0.842 0.05,0.079 0.104,0.151 0.091,0.191 h 4.094 v -1.296 h -3.243 c -0.269,0 -0.464,-0.195 -0.464,-0.464 v -1.022 c 0,-0.278 0.2,-0.479 0.476,-0.479 h 3.224 v -1.563 l -3.556,0.003 c -0.059,0.041 -0.119,0.095 -0.178,0.147 -0.122,0.108 -0.248,0.22 -0.394,0.28 -0.652,0.275 -1.236,0.132 -1.646,-0.405 -0.474,-0.622 -0.401,-1.305 0.205,-1.92 0.301,-0.307 0.919,-0.495 1.392,-0.264 0.066,0.033 0.13,0.068 0.192,0.103 0.178,0.098 0.297,0.164 0.475,0.164 0.825,-0.003 1.987,-0.015 3.495,-0.034 V 7.112 h -3.191 c -0.351,0 -0.587,-0.236 -0.587,-0.587 V 5.75 c 0,-0.343 0.231,-0.574 0.573,-0.574 h 3.213 V 3.68 l -3.944,0.021 c -0.091,0.168 -0.146,0.259 -0.167,0.287 -0.558,0.714 -1.392,1.069 -2.23,0.951 -0.841,-0.12 -1.548,-0.7 -1.888,-1.551 -0.367,-0.917 -0.17,-1.793 0.571,-2.53 0.555,-0.554 1.325,-0.768 2.114,-0.584 0.783,0.182 1.436,0.74 1.731,1.473 h 3.83 c 0.027,-0.479 0.159,-0.932 0.364,-1.351 l -0.727,-0.647 1.328,-1.521 0.735,0.653 c 0.456,-0.311 0.979,-0.553 1.566,-0.686 v -4.239 c -0.728,-0.289 -1.211,-0.806 -1.438,-1.541 -0.269,-0.869 -0.019,-1.773 0.654,-2.356 0.679,-0.59 1.615,-0.712 2.444,-0.319 0.988,0.471 1.461,1.356 1.369,2.563 0.514,0.46 1.204,1.003 2.05,1.616 0.378,0.273 0.691,0.551 0.691,1.208 0.001,1.134 0.007,2.14 0.017,3.01 h 1.328 l 0.015,-3.226 c -0.682,-0.805 -0.766,-1.611 -0.233,-2.213 0.304,-0.343 0.718,-0.533 1.167,-0.537 0.445,-0.003 0.88,0.185 1.189,0.521 0.294,0.321 0.566,0.884 0.184,1.756 -0.022,0.043 -0.03,0.061 -0.282,0.358 -0.105,0.125 -0.154,0.285 -0.151,0.491 0.011,1.002 0.026,1.961 0.048,2.875 h 1.419 c -0.006,-0.865 -0.006,-1.851 0.005,-2.955 0.003,-0.662 0.389,-1.025 0.767,-1.292 0.846,-0.597 1.537,-1.142 2.061,-1.626 -0.265,-1.175 0.376,-2.115 1.149,-2.535 0.358,-0.195 0.736,-0.29 1.108,-0.29 0.629,0 1.24,0.271 1.71,0.792 0.476,0.529 0.675,1.136 0.592,1.803 -0.108,0.876 -0.615,1.524 -1.51,1.929" style="fill:#68c5ea;fill-opacity:1;fill-rule:nonzero;stroke:none" transform="matrix(1.3333333,0,0,-1.3333333,1680.2354,1537.4939)" clip-path="url(#clipPath984)"></path><path id="path3696" d="m 1700.6679,1536.8354 c -3.04,0.148 -2.3747,2.364 -2.7987,4.68 v 0 c -0.736,0.2493 -1.444,0.5387 -2.1573,0.8453 v 0 c -0.8373,-0.4773 -2.812,-1.9706 -3.8093,-1.7306 v 0 c -0.408,0.097 -1.084,0.6746 -1.804,1.412 v 0 l -3.5907,-3.3254 -1.752,2.048 3.56,3.2974 c -0.6,0.744 -1.072,1.396 -1.2187,1.684 v 0 c -0.6893,1.352 0.832,2.7026 1.5014,3.7586 v 0 c -0.404,0.824 -0.7534,1.6454 -1.084,2.5014 v 0 c -1.8534,0.1053 -3.9014,-0.2387 -4.228,2.0386 v 0 c -0.1574,1.0894 -0.54,5.9254 0.608,6.6507 v 0 c 0.984,0.6227 2.4933,0.5733 3.62,0.556 v 0 c 0.284,1.0333 0.6466,1.9853 1.084,2.9587 v 0 c -3.428,3.5426 -3.0734,3.36 0.3613,6.8 v 0 c 3.9573,3.9613 2.9253,3.0933 6.752,0.252 v 0 c 0.6933,0.5293 1.644,0.8053 2.4533,1.1013 v 0 c 0.01,1.7027 -0.4133,3.916 1.7547,4.2733 v 0 c 1.1987,0.1974 5.2787,0.136 6.644,0.065 v 0 c 1.876,-0.852 1.2707,-2.692 1.7253,-4.3387 v 0 c 0.6774,-0.4613 1.3254,-0.78 2.0747,-1.1013 v 0 c 1.1187,0.94 2.6507,3.1306 4.3213,1.9333 v 0 c 0.8174,-0.5853 4.1627,-3.8133 4.7294,-4.564 v 0 c 1.2946,-1.72 -0.6387,-3.1213 -1.708,-4.4213 v 0 c 0.288,-0.6907 0.548,-1.416 0.8866,-2.0827 v 0 c 1.824,-0.396 4.2547,-0.1733 4.544,-2.4853 v 0 c 0.14,-1.116 0.132,-5.02 -0.1133,-6.0454 v 0 c -0.4173,-1.7346 -2.98,-1.8573 -4.4307,-1.9533 v 0 c -0.392,-0.7173 -0.6813,-1.3413 -0.8866,-2.1387 v 0 l 0.064,-0.1373 c 0.4666,-0.996 2.3093,-2.584 1.888,-3.672 v 0 c -0.416,-1.076 -4.7974,-5.4333 -5.8307,-5.8427 v 0 c -1.276,-0.5066 -2.832,1.708 -3.464,2.508 v 0 c -0.6733,-0.4146 -1.3053,-0.6626 -2.0747,-0.8453 v 0 c 0.2054,-4.1613 -1.0946,-4.8333 -3.4933,-4.8333 v 0 c -1.1427,0 -2.532,0.152 -4.128,0.1533 m -4.644,8.82 c 4.6027,-1.5373 5.0107,-1.492 5.1573,-5.6787 v 0 h 4.0467 c 0.075,0.8107 -0.1853,2.8014 0.364,3.4027 v 0 c 0.3213,0.3507 4.9573,2.6027 5.2507,2.5773 v 0 c 0.5986,-0.051 2.152,-1.904 2.6253,-2.3653 v 0 c 0.836,0.9293 1.7747,1.7587 2.6987,2.5973 v 0 c -0.728,0.8227 -1.756,1.7507 -2.1827,2.772 v 0 c -0.028,0.4547 1.9147,4.9307 2.256,5.4494 v 0 c 0.3547,0.54 2.9067,0.5146 3.632,0.6613 v 0 l 0.1693,0.036 v 3.5787 c -1.256,0.148 -2.66,0.192 -3.8746,0.536 v 0 c -2.4347,4.776 -2.356,4.5653 0,8.212 v 0 l -2.6987,2.572 c -0.5013,-0.5894 -1.6107,-2.1 -2.3813,-2.156 v 0 c -0.8627,-0.063 -5.3147,1.636 -5.84,2.2333 v 0 c -0.3814,0.4347 -0.2787,1.6947 -0.292,2.28 v 0 1.0907 h -3.7734 c -0.029,-0.76 0.248,-2.6494 -0.2386,-3.2387 v 0 c -0.3787,-0.456 -5.2494,-2.5147 -5.8227,-2.456 v 0 c -0.824,0.084 -2.0733,1.6667 -2.6973,2.2467 v 0 c -0.8534,-0.876 -1.7267,-1.7267 -2.608,-2.572 v 0 c 2.4813,-3.0374 2.6906,-1.94 1.1,-5.6347 v 0 c -1.3187,-3.0587 -0.5267,-3.7573 -4.312,-3.624 v 0 -3.068 c 4.152,-0.232 3.172,0.055 5.0973,-4.8893 v 0 c 0.7267,-1.868 -0.4547,-2.0027 -1.1253,-3.6027 v 0 l -0.047,-0.116 c 0.5,-0.9067 1.2867,-1.6867 1.8947,-2.532 v 0 c 0.7013,0.58 2.0973,1.7507 3.192,1.7507 v 0 c 0.1426,0 0.2786,-0.02 0.4093,-0.063" style="fill:url(#linearGradient3750);stroke:none;stroke-width:1.33333"></path><path id="path3697" d="m 1630.8479,1551.2567 h 7.824 v -2.6933 h -7.824 z" style="fill:url(#linearGradient3749);stroke:none;stroke-width:1.33333"></path><path id="path3698" d="m 1630.8479,1555.8461 h 18.1507 v -2.6934 h -18.1507 z" style="fill:url(#linearGradient3748);stroke:none;stroke-width:1.33333"></path><path id="path3699" d="m 1630.8479,1560.3327 h 18.1507 v -2.6933 h -18.1507 z" style="fill:url(#linearGradient3747);stroke:none;stroke-width:1.33333"></path><path id="path3700" d="m 1630.8479,1564.9221 h 18.1507 v -2.6934 h -18.1507 z" style="fill:url(#linearGradient3746);stroke:none;stroke-width:1.33333"></path><path id="path3701" d="m 1630.8479,1569.4074 h 18.1507 v -2.6933 h -18.1507 z" style="fill:url(#linearGradient3745);stroke:none;stroke-width:1.33333"></path><path id="path3702" d="m 1652.4906,1539.5141 c -0.572,-0.26 -1.2027,-0.416 -1.8733,-0.416 v 0 h -20.9374 c -2.496,0 -4.5253,2.0306 -4.5253,4.5266 v 0 28.2227 c 0,2.496 2.0293,4.5267 4.5253,4.5267 v 0 h 20.9374 c 2.4973,0 4.5266,-2.0307 4.5266,-4.5267 v 0 -28.2227 c 0,-0.84 -0.244,-1.616 -0.644,-2.292 v 0 l 1.66,-1.476 -1.772,-2.0293 z m -24.452,32.3333 v -28.2227 c 0,-0.9053 0.736,-1.64 1.6413,-1.64 v 0 h 20.9374 c 0.9053,0 1.6413,0.7347 1.6413,1.64 v 0 28.2227 c 0,0.904 -0.736,1.64 -1.6413,1.64 v 0 h -20.9374 c -0.9053,0 -1.6413,-0.736 -1.6413,-1.64" style="fill:url(#linearGradient3744);stroke:none;stroke-width:1.33333"></path></g></svg>