<svg xmlns:xlink="http://www.w3.org/1999/xlink" xmlns="http://www.w3.org/2000/svg" xmlns:svg="http://www.w3.org/2000/svg" id="svg1" width="242.75671" height="403.51855" viewBox="0 0 242.75671 403.51855"><defs id="defs1"><clipPath clipPathUnits="userSpaceOnUse" id="clipPath20"><path d="M 0,2016.386 H 841.89 V 0 H 0 Z" transform="translate(-592.75451,-736.86834)" id="path20"></path></clipPath><radialGradient fx="0" fy="0" cx="0" cy="0" r="1" gradientUnits="userSpaceOnUse" gradientTransform="matrix(-101.0199,8.3504124,-8.3985691,100.44065,416.29047,1058.4368)" spreadMethod="pad" id="radialGradient86"><stop style="stop-opacity:1;stop-color:#8638f9" offset="0" id="stop83"></stop><stop style="stop-opacity:1;stop-color:#34157f" offset="0.499339" id="stop84"></stop><stop style="stop-opacity:1;stop-color:#040038" offset="0.86944" id="stop85"></stop><stop style="stop-opacity:1;stop-color:#040038" offset="1" id="stop86"></stop></radialGradient><radialGradient fx="0" fy="0" cx="0" cy="0" r="1" gradientUnits="userSpaceOnUse" gradientTransform="matrix(-81.07354,-60.500385,-73.401916,69.511314,651.40308,839.74725)" spreadMethod="pad" id="radialGradient91"><stop style="stop-opacity:1;stop-color:#68c5ea" offset="0" id="stop87"></stop><stop style="stop-opacity:1;stop-color:#68c5ea" offset="0.00611772" id="stop88"></stop><stop style="stop-opacity:1;stop-color:#2169a1" offset="0.37192" id="stop89"></stop><stop style="stop-opacity:1;stop-color:#06063e" offset="0.849186" id="stop90"></stop><stop style="stop-opacity:1;stop-color:#040038" offset="1" id="stop91"></stop></radialGradient><radialGradient fx="0" fy="0" cx="0" cy="0" r="1" gradientUnits="userSpaceOnUse" gradientTransform="matrix(-101.0199,8.3504124,-8.3985691,100.44065,390.33221,845.84375)" spreadMethod="pad" id="radialGradient95"><stop style="stop-opacity:1;stop-color:#ff63ba" offset="0" id="stop92"></stop><stop style="stop-opacity:1;stop-color:#471a5b" offset="0.604869" id="stop93"></stop><stop style="stop-opacity:1;stop-color:#040038" offset="0.86944" id="stop94"></stop><stop style="stop-opacity:1;stop-color:#040038" offset="1" id="stop95"></stop></radialGradient><radialGradient fx="0" fy="0" cx="0" cy="0" r="1" gradientUnits="userSpaceOnUse" gradientTransform="matrix(-101.0199,8.3504124,-8.3985691,100.44065,620.14655,1043.0723)" spreadMethod="pad" id="radialGradient99"><stop style="stop-opacity:1;stop-color:#f97203" offset="0" id="stop96"></stop><stop style="stop-opacity:1;stop-color:#3d1a2c" offset="0.556651" id="stop97"></stop><stop style="stop-opacity:1;stop-color:#040038" offset="0.86944" id="stop98"></stop><stop style="stop-opacity:1;stop-color:#040038" offset="1" id="stop99"></stop></radialGradient><radialGradient fx="0" fy="0" cx="0" cy="0" r="1" gradientUnits="userSpaceOnUse" gradientTransform="matrix(-101.0199,8.3504124,-8.3985691,100.44065,520.9635,694.31445)" spreadMethod="pad" id="radialGradient103"><stop style="stop-opacity:1;stop-color:#00d76f" offset="0" id="stop100"></stop><stop style="stop-opacity:1;stop-color:#032d44" offset="0.578476" id="stop101"></stop><stop style="stop-opacity:1;stop-color:#040038" offset="0.86944" id="stop102"></stop><stop style="stop-opacity:1;stop-color:#040038" offset="1" id="stop103"></stop></radialGradient><radialGradient xlink:href="#radialGradient103" id="radialGradient3877" gradientUnits="userSpaceOnUse" gradientTransform="matrix(-134.6932,-11.133883,-11.198092,-133.92086,1921.0775,2164.962)" cx="0" cy="0" fx="0" fy="0" r="1" spreadMethod="pad"></radialGradient><radialGradient xlink:href="#radialGradient99" id="radialGradient3878" gradientUnits="userSpaceOnUse" gradientTransform="matrix(-134.6932,-11.133883,-11.198092,-133.92086,2053.3215,1699.9516)" cx="0" cy="0" fx="0" fy="0" r="1" spreadMethod="pad"></radialGradient><radialGradient xlink:href="#radialGradient95" id="radialGradient3879" gradientUnits="userSpaceOnUse" gradientTransform="matrix(-134.6932,-11.133883,-11.198092,-133.92086,1746.9024,1962.923)" cx="0" cy="0" fx="0" fy="0" r="1" spreadMethod="pad"></radialGradient><radialGradient xlink:href="#radialGradient91" id="radialGradient3880" gradientUnits="userSpaceOnUse" gradientTransform="matrix(-108.09805,80.667178,-97.869219,-92.68175,2094.9969,1971.0516)" cx="0" cy="0" fx="0" fy="0" r="1" spreadMethod="pad"></radialGradient><radialGradient xlink:href="#radialGradient86" id="radialGradient3881" gradientUnits="userSpaceOnUse" gradientTransform="matrix(-134.6932,-11.133883,-11.198092,-133.92086,1781.5134,1679.4656)" cx="0" cy="0" fx="0" fy="0" r="1" spreadMethod="pad"></radialGradient></defs><g id="layer-MC0" transform="translate(-1798.7669,-1704.7048)"><path id="path3757" d="m 0,0 h -144.98 c -10.242,0 -18.544,8.302 -18.544,18.544 v 265.551 c 0,10.241 8.302,18.544 18.544,18.544 H 0 c 10.241,0 18.543,-8.303 18.543,-18.544 V 18.544 C 18.543,8.302 10.241,0 0,0" style="fill:#040038;fill-opacity:1;fill-rule:nonzero;stroke:none" transform="matrix(1.3333333,0,0,-1.3333333,2016.7989,2108.2235)" clip-path="url(#clipPath20)"></path><path id="path3773" d="m 1823.4915,1704.7053 c -13.656,0 -24.724,11.0693 -24.724,24.724 v 0 79.012 c 26.344,-5.3587 51.92,-18.528 72.876,-39.364 v 0 c 18.7947,-18.6867 31.3854,-41.0587 37.6694,-64.372 v 0 z" style="fill:url(#radialGradient3881);stroke:none;stroke-width:1.33333"></path><path id="path3774" d="m 1967.7542,1963.6293 c -3.356,56.8813 26.2933,107.5226 71.304,130.6453 v 0 c 1.58,-3.2573 2.4653,-6.912 2.4653,-10.7747 v 0 -235.892 c -41.084,20.7454 -70.7133,64.2214 -73.7693,116.0214" style="fill:url(#radialGradient3880);stroke:none;stroke-width:1.33333"></path><path id="path3775" d="m 1798.7675,2080.0013 c 13.728,-6.804 26.7,-15.968 38.264,-27.4654 v 0 c 53.6294,-53.3226 56.752,-136.668 6.9747,-186.16 v 0 c -13.1093,-13.0346 -28.58,-22.4213 -45.2387,-28.2026 v 0 z" style="fill:url(#radialGradient3879);stroke:none;stroke-width:1.33333"></path><path id="path3776" d="m 1920.9329,1704.7053 c -1.3014,33.7386 10.36,67.0106 35.2853,91.792 v 0 c 23.208,23.076 53.8053,34.7173 85.3053,35.1666 v 0 -102.2346 c 0,-13.6547 -11.0693,-24.724 -24.7253,-24.724 v 0 z" style="fill:url(#radialGradient3878);stroke:none;stroke-width:1.33333"></path><path id="path3777" d="m 1830.9489,2075.3506 c -8.704,8.6533 -16.0787,18.1013 -22.112,28.064 v 0 c 4.1013,3.0227 9.1693,4.808 14.6546,4.808 v 0 h 193.3067 c 9.356,0 17.4973,-5.196 21.6973,-12.8587 v 0 c -5.3413,-9.7133 -12.108,-18.7893 -20.3147,-26.948 v 0 c -23.6759,-23.5413 -55.0466,-35.1826 -87.2159,-35.18 v 0 c -35.464,0 -71.896,14.1547 -100.016,42.1147" style="fill:url(#radialGradient3877);stroke:none;stroke-width:1.33333"></path></g></svg>