<svg xmlns:xlink="http://www.w3.org/1999/xlink" xmlns="http://www.w3.org/2000/svg" xmlns:svg="http://www.w3.org/2000/svg" id="svg1" width="87.217773" height="72.278687" viewBox="0 0 87.217772 72.278686"><defs id="defs1"><linearGradient x1="0" y1="0" x2="1" y2="0" gradientUnits="userSpaceOnUse" gradientTransform="matrix(-19.937088,-19.937088,-19.937088,19.937088,511.42334,985.95856)" spreadMethod="pad" id="linearGradient1015"><stop style="stop-opacity:1;stop-color:#e63a46" offset="0" id="stop1012"></stop><stop style="stop-opacity:1;stop-color:#e63a46" offset="0.0277571" id="stop1013"></stop><stop style="stop-opacity:1;stop-color:#040038" offset="0.711826" id="stop1014"></stop><stop style="stop-opacity:1;stop-color:#040038" offset="1" id="stop1015"></stop></linearGradient><linearGradient x1="0" y1="0" x2="1" y2="0" gradientUnits="userSpaceOnUse" gradientTransform="matrix(-16.52409,-28.620563,-28.620563,16.52409,518.21838,996.79889)" spreadMethod="pad" id="linearGradient1019"><stop style="stop-opacity:1;stop-color:#00d76f" offset="0" id="stop1016"></stop><stop style="stop-opacity:1;stop-color:#00d76f" offset="0.336165" id="stop1017"></stop><stop style="stop-opacity:1;stop-color:#026c54" offset="0.756986" id="stop1018"></stop><stop style="stop-opacity:1;stop-color:#040038" offset="1" id="stop1019"></stop></linearGradient><clipPath clipPathUnits="userSpaceOnUse" id="clipPath1021"><path d="M 0,2016.386 H 841.89 V 0 H 0 Z" transform="translate(-530.22281,-980.1289)" id="path1021"></path></clipPath><clipPath clipPathUnits="userSpaceOnUse" id="clipPath1023"><path d="M 0,2016.386 H 841.89 V 0 H 0 Z" id="path1023"></path></clipPath><clipPath clipPathUnits="userSpaceOnUse" id="clipPath1025"><path d="M 0,2016.386 H 841.89 V 0 H 0 Z" id="path1025"></path></clipPath><clipPath clipPathUnits="userSpaceOnUse" id="clipPath1027"><path d="M 0,2016.386 H 841.89 V 0 H 0 Z" id="path1027"></path></clipPath><clipPath clipPathUnits="userSpaceOnUse" id="clipPath1029"><path d="M 0,2016.386 H 841.89 V 0 H 0 Z" id="path1029"></path></clipPath><clipPath clipPathUnits="userSpaceOnUse" id="clipPath1031"><path d="M 0,2016.386 H 841.89 V 0 H 0 Z" id="path1031"></path></clipPath><clipPath clipPathUnits="userSpaceOnUse" id="clipPath1033"><path d="M 0,2016.386 H 841.89 V 0 H 0 Z" transform="translate(-536.00212,-1006.843)" id="path1033"></path></clipPath><clipPath clipPathUnits="userSpaceOnUse" id="clipPath1035"><path d="M 0,2016.386 H 841.89 V 0 H 0 Z" id="path1035"></path></clipPath><clipPath clipPathUnits="userSpaceOnUse" id="clipPath1037"><path d="M 0,2016.386 H 841.89 V 0 H 0 Z" id="path1037"></path></clipPath><clipPath clipPathUnits="userSpaceOnUse" id="clipPath1039"><path d="M 0,2016.386 H 841.89 V 0 H 0 Z" transform="translate(-538.84462,-1009.4608)" id="path1039"></path></clipPath><clipPath clipPathUnits="userSpaceOnUse" id="clipPath1041"><path d="M 0,2016.386 H 841.89 V 0 H 0 Z" transform="translate(-554.03662,-1013.3145)" id="path1041"></path></clipPath><linearGradient xlink:href="#linearGradient1019" id="linearGradient3742" gradientUnits="userSpaceOnUse" gradientTransform="matrix(-22.032119,38.16075,-38.16075,-22.032119,1933.7857,1535.9995)" x1="0" y1="0" x2="1" y2="0" spreadMethod="pad"></linearGradient><linearGradient xlink:href="#linearGradient1015" id="linearGradient3743" gradientUnits="userSpaceOnUse" gradientTransform="matrix(-26.582783,26.582783,-26.582783,-26.582783,1924.7257,1550.4533)" x1="0" y1="0" x2="1" y2="0" spreadMethod="pad"></linearGradient></defs><g id="layer-MC0" transform="translate(-1898.7907,-1508.8914)"><path id="path3703" d="m 1904.7346,1532.2247 c -3.2774,0 -5.944,2.6667 -5.944,5.944 v 0 37.0574 c 0,3.2773 2.6666,5.944 5.944,5.944 v 0 h 27.4933 c 3.2773,0 5.9427,-2.6667 5.9427,-5.944 v 0 -1.7614 h -3.788 v 1.7614 c 0,1.188 -0.9667,2.1546 -2.1547,2.1546 v 0 h -27.4933 c -1.1894,0 -2.1547,-0.9666 -2.1547,-2.1546 v 0 -37.0574 c 0,-1.188 0.9653,-2.1546 2.1547,-2.1546 v 0 h 1.7626 v -3.7894 z" style="fill:url(#linearGradient3743);stroke:none;stroke-width:1.33333"></path><path id="path3704" d="m 1912.4372,1524.6927 c -3.276,0 -5.9426,2.6654 -5.9426,5.9414 v 0 37.06 c 0,3.2773 2.6666,5.944 5.9426,5.944 v 0 h 27.4947 c 3.2773,0 5.9427,-2.6667 5.9427,-5.944 v 0 -1.7627 h -3.788 v 1.7627 c 0,1.188 -0.9667,2.1546 -2.1547,2.1546 v 0 h -27.4947 c -1.188,0 -2.1533,-0.9666 -2.1533,-2.1546 v 0 -37.06 c 0,-1.1867 0.9653,-2.152 2.1533,-2.152 v 0 h 1.7627 v -3.7894 z" style="fill:url(#linearGradient3742);stroke:none;stroke-width:1.33333"></path><path id="path3705" d="m 0,0 v -1.321 c 0,-0.892 -0.725,-1.616 -1.616,-1.616 h -20.62 c -0.891,0 -1.616,0.724 -1.616,1.616 v 27.793 c 0,0.891 0.725,1.616 1.616,1.616 h 1.322 v 2.842 h -1.322 c -2.458,0 -4.457,-2 -4.457,-4.458 V -1.321 c 0,-2.459 1.999,-4.458 4.457,-4.458 h 20.62 c 2.458,0 4.457,1.999 4.457,4.458 V 0 Z" style="fill:#ee9b00;fill-opacity:1;fill-rule:nonzero;stroke:none" transform="matrix(1.3333333,0,0,-1.3333333,1949.7917,1558.2262)" clip-path="url(#clipPath1021)"></path><path id="path3706" d="m 522.621,1007.516 h -7.705 v -2.652 h 7.705 z" style="fill:#68c5ea;fill-opacity:1;fill-rule:nonzero;stroke:none" transform="matrix(1.3333333,0,0,-1.3333333,1242.8279,2865.0647)" clip-path="url(#clipPath1023)"></path><path id="path3707" d="m 514.916,1000.343 h 17.876 v 2.652 h -17.876 z" style="fill:#68c5ea;fill-opacity:1;fill-rule:nonzero;stroke:none" transform="matrix(1.3333333,0,0,-1.3333333,1242.8279,2865.0647)" clip-path="url(#clipPath1025)"></path><path id="path3708" d="m 514.916,995.926 h 17.876 v 2.652 h -17.876 z" style="fill:#68c5ea;fill-opacity:1;fill-rule:nonzero;stroke:none" transform="matrix(1.3333333,0,0,-1.3333333,1242.8279,2865.0647)" clip-path="url(#clipPath1027)"></path><path id="path3709" d="m 514.916,991.406 h 17.876 v 2.652 h -17.876 z" style="fill:#68c5ea;fill-opacity:1;fill-rule:nonzero;stroke:none" transform="matrix(1.3333333,0,0,-1.3333333,1242.8279,2865.0647)" clip-path="url(#clipPath1029)"></path><path id="path3710" d="m 514.916,986.989 h 17.876 v 2.652 h -17.876 z" style="fill:#68c5ea;fill-opacity:1;fill-rule:nonzero;stroke:none" transform="matrix(1.3333333,0,0,-1.3333333,1242.8279,2865.0647)" clip-path="url(#clipPath1031)"></path><path id="path3711" d="m 0,0 v -22.256 c 0,-0.891 -0.725,-1.616 -1.616,-1.616 h -20.62 c -0.891,0 -1.616,0.725 -1.616,1.616 V 5.538 c 0,0.89 0.725,1.615 1.616,1.615 h 15.237 v 2.842 h -15.237 c -2.458,0 -4.457,-2 -4.457,-4.457 v -27.794 c 0,-2.459 1.999,-4.458 4.457,-4.458 h 20.62 c 2.458,0 4.457,1.999 4.457,4.458 V 0 Z" style="fill:#68c5ea;fill-opacity:1;fill-rule:nonzero;stroke:none" transform="matrix(1.3333333,0,0,-1.3333333,1957.4974,1522.6074)" clip-path="url(#clipPath1033)"></path><path id="path3712" d="m 527.798,1006.812 h 2.652 v 10.024 h -2.652 z" style="fill:#68c5ea;fill-opacity:1;fill-rule:nonzero;stroke:none" transform="matrix(1.3333333,0,0,-1.3333333,1242.8279,2865.0647)" clip-path="url(#clipPath1035)"></path><path id="path3713" d="m 538.845,1009.461 h -9.487 v -2.652 h 9.487 z" style="fill:#68c5ea;fill-opacity:1;fill-rule:nonzero;stroke:none" transform="matrix(1.3333333,0,0,-1.3333333,1242.8279,2865.0647)" clip-path="url(#clipPath1037)"></path><path id="path3714" d="M 0,0 -8.395,7.375 V 3.641 L 0,-3.735 Z" style="fill:#68c5ea;fill-opacity:1;fill-rule:nonzero;stroke:none" transform="matrix(1.3333333,0,0,-1.3333333,1961.2874,1519.117)" clip-path="url(#clipPath1039)"></path><path id="path3715" d="M 0,0 V 0 C -0.004,-0.003 -0.007,-0.006 -0.011,-0.01 -0.007,-0.006 -0.004,-0.003 0,0 m 2.796,-7.374 c -3.189,1.67 -3.431,2.891 -3.446,3.003 v 0.003 c 0.004,0.064 0.095,1.602 1.811,3.046 0.101,0.081 0.433,0.372 0.494,0.826 C 1.699,-0.195 1.607,0.095 1.402,0.316 1.201,0.536 0.933,0.663 0.604,0.653 0.214,0.649 -0.088,0.451 -0.226,0.338 -1.698,-0.799 -3.694,-0.473 -3.71,-0.47 c -0.017,0.003 -0.062,0.009 -0.079,0.013 -0.019,0 -1.867,0.265 -3.297,3.626 -0.2,0.495 -0.819,0.833 -1.505,0.534 C -8.907,3.565 -9.15,3.325 -9.277,3.027 -9.465,2.589 -9.309,2.218 -9.279,2.161 c 0.674,-1.585 0.637,-2.979 -0.108,-4.028 -0.85,-1.198 -2.591,-1.907 -4.902,-1.994 -0.366,-0.017 -0.72,0.005 -1.076,0.017 -0.092,-0.432 -0.168,-0.87 -0.214,-1.317 -0.049,-0.467 -0.064,-0.925 -0.059,-1.378 0.554,0.045 4.151,0.256 5.906,-1.78 1.108,-1.287 1.276,-3.278 0.504,-5.917 -0.083,-0.218 -0.194,-0.653 0,-1.042 0.132,-0.256 0.364,-0.434 0.658,-0.501 0.647,-0.143 1.312,0.274 1.566,0.959 2.171,5.154 3.299,6.361 3.576,6.601 0.068,0.016 0.133,0.042 0.2,0.077 0.014,0.007 1.407,0.524 4.73,-1.222 0.482,-0.258 1.227,-0.161 1.638,0.45 0.185,0.279 0.251,0.592 0.182,0.883 -0.091,0.39 -0.391,0.587 -0.526,0.657" style="fill:#68c5ea;fill-opacity:1;fill-rule:nonzero;stroke:none" transform="matrix(1.3333333,0,0,-1.3333333,1981.5434,1513.9787)" clip-path="url(#clipPath1041)"></path></g></svg>