<svg xmlns:xlink="http://www.w3.org/1999/xlink" xmlns="http://www.w3.org/2000/svg" xmlns:svg="http://www.w3.org/2000/svg" id="svg1" width="84.755127" height="80.015503" viewBox="0 0 84.755125 80.015502"><defs id="defs1"><clipPath clipPathUnits="userSpaceOnUse" id="clipPath1043"><path d="M 0,2016.386 H 841.89 V 0 H 0 Z" transform="translate(-700.90082,-1016.2434)" id="path1043"></path></clipPath><clipPath clipPathUnits="userSpaceOnUse" id="clipPath1045"><path d="M 0,2016.386 H 841.89 V 0 H 0 Z" transform="translate(-704.12512,-1013.4531)" id="path1045"></path></clipPath><clipPath clipPathUnits="userSpaceOnUse" id="clipPath1047"><path d="M 0,2016.386 H 841.89 V 0 H 0 Z" transform="translate(-690.47452,-1005.5229)" id="path1047"></path></clipPath><clipPath clipPathUnits="userSpaceOnUse" id="clipPath1049"><path d="M 0,2016.386 H 841.89 V 0 H 0 Z" transform="translate(-740.89362,-1006.4641)" id="path1049"></path></clipPath><clipPath clipPathUnits="userSpaceOnUse" id="clipPath1051"><path d="M 0,2016.386 H 841.89 V 0 H 0 Z" transform="translate(-702.26212,-998.18552)" id="path1051"></path></clipPath><clipPath clipPathUnits="userSpaceOnUse" id="clipPath1053"><path d="M 0,2016.386 H 841.89 V 0 H 0 Z" transform="translate(-708.53702,-1006.4775)" id="path1053"></path></clipPath><clipPath clipPathUnits="userSpaceOnUse" id="clipPath1055"><path d="M 0,2016.386 H 841.89 V 0 H 0 Z" transform="translate(-718.15562,-1013.6001)" id="path1055"></path></clipPath><clipPath clipPathUnits="userSpaceOnUse" id="clipPath1057"><path d="M 0,2016.386 H 841.89 V 0 H 0 Z" transform="translate(-729.05882,-1017.4453)" id="path1057"></path></clipPath><clipPath clipPathUnits="userSpaceOnUse" id="clipPath1059"><path d="M 0,2016.386 H 841.89 V 0 H 0 Z" transform="translate(-724.55162,-1010.1432)" id="path1059"></path></clipPath><clipPath clipPathUnits="userSpaceOnUse" id="clipPath1061"><path d="M 0,2016.386 H 841.89 V 0 H 0 Z" transform="translate(-742.08412,-1004.1648)" id="path1061"></path></clipPath><clipPath clipPathUnits="userSpaceOnUse" id="clipPath1063"><path d="M 0,2016.386 H 841.89 V 0 H 0 Z" transform="translate(-741.73292,-1008.4936)" id="path1063"></path></clipPath><clipPath clipPathUnits="userSpaceOnUse" id="clipPath1065"><path d="M 0,2016.386 H 841.89 V 0 H 0 Z" transform="translate(-708.53702,-1006.4775)" id="path1065"></path></clipPath><clipPath clipPathUnits="userSpaceOnUse" id="clipPath1067"><path d="M 0,2016.386 H 841.89 V 0 H 0 Z" transform="translate(-711.03342,-1004.0545)" id="path1067"></path></clipPath><clipPath clipPathUnits="userSpaceOnUse" id="clipPath1069"><path d="M 0,2016.386 H 841.89 V 0 H 0 Z" transform="translate(-714.27612,-1014.3777)" id="path1069"></path></clipPath><clipPath clipPathUnits="userSpaceOnUse" id="clipPath1071"><path d="M 0,2016.386 H 841.89 V 0 H 0 Z" transform="translate(-723.36902,-1007.8731)" id="path1071"></path></clipPath><clipPath clipPathUnits="userSpaceOnUse" id="clipPath1073"><path d="M 0,2016.386 H 841.89 V 0 H 0 Z" transform="translate(-730.05472,-1001.7786)" id="path1073"></path></clipPath><clipPath clipPathUnits="userSpaceOnUse" id="clipPath1075"><path d="M 0,2016.386 H 841.89 V 0 H 0 Z" transform="translate(-730.41052,-1002.5703)" id="path1075"></path></clipPath><clipPath clipPathUnits="userSpaceOnUse" id="clipPath1077"><path d="M 0,2016.386 H 841.89 V 0 H 0 Z" transform="translate(-711.76762,-1019.9877)" id="path1077"></path></clipPath><clipPath clipPathUnits="userSpaceOnUse" id="clipPath1079"><path d="M 0,2016.386 H 841.89 V 0 H 0 Z" transform="translate(-728.80242,-1016.0229)" id="path1079"></path></clipPath><linearGradient x1="0" y1="0" x2="1" y2="0" gradientUnits="userSpaceOnUse" gradientTransform="matrix(0,-23.874826,-23.874826,0,696.57587,991.52484)" spreadMethod="pad" id="linearGradient1081"><stop style="stop-opacity:1;stop-color:#ab85e8" offset="0" id="stop1079"></stop><stop style="stop-opacity:1;stop-color:#ab85e8" offset="0.169829" id="stop1080"></stop><stop style="stop-opacity:1;stop-color:#f7f8f8" offset="1" id="stop1081"></stop></linearGradient><clipPath clipPathUnits="userSpaceOnUse" id="clipPath1083"><path d="M 0,2016.386 H 841.89 V 0 H 0 Z" transform="translate(-696.53561,-973.26722)" id="path1083"></path></clipPath><linearGradient x1="0" y1="0" x2="1" y2="0" gradientUnits="userSpaceOnUse" gradientTransform="matrix(0,23.875986,23.875986,0,739.90906,967.64728)" spreadMethod="pad" id="linearGradient1085"><stop style="stop-opacity:1;stop-color:#f7f8f8" offset="0" id="stop1083"></stop><stop style="stop-opacity:1;stop-color:#68c5ea" offset="0.830171" id="stop1084"></stop><stop style="stop-opacity:1;stop-color:#68c5ea" offset="1" id="stop1085"></stop></linearGradient><clipPath clipPathUnits="userSpaceOnUse" id="clipPath1087"><path d="M 0,2016.386 H 841.89 V 0 H 0 Z" transform="translate(-739.35782,-973.26722)" id="path1087"></path></clipPath><clipPath clipPathUnits="userSpaceOnUse" id="clipPath1089"><path d="M 0,2016.386 H 841.89 V 0 H 0 Z" transform="translate(-700.86932,-998.0302)" id="path1089"></path></clipPath><clipPath clipPathUnits="userSpaceOnUse" id="clipPath1091"><path d="M 0,2016.386 H 841.89 V 0 H 0 Z" transform="translate(-735.24032,-997.20302)" id="path1091"></path></clipPath><linearGradient xlink:href="#linearGradient1085" id="linearGradient3740" gradientUnits="userSpaceOnUse" gradientTransform="matrix(0,-31.834647,31.834647,0,2229.3733,1574.8684)" x1="0" y1="0" x2="1" y2="0" spreadMethod="pad"></linearGradient><linearGradient xlink:href="#linearGradient1081" id="linearGradient3741" gradientUnits="userSpaceOnUse" gradientTransform="matrix(0,31.833101,-31.833101,0,2171.5957,1543.0316)" x1="0" y1="0" x2="1" y2="0" spreadMethod="pad"></linearGradient></defs><g id="layer-MC0" transform="translate(-2158.1265,-1494.8532)"><path id="path3716" d="m 0,0 c 0,-0.831 0.676,-1.508 1.507,-1.508 0.832,0 1.508,0.677 1.508,1.508 0,0.831 -0.676,1.507 -1.508,1.507 C 0.676,1.507 0,0.831 0,0 m 5.58,0 c 0,-2.246 -1.827,-4.073 -4.073,-4.073 -2.246,0 -4.073,1.827 -4.073,4.073 0,2.246 1.827,4.072 4.073,4.072 C 3.753,4.072 5.58,2.246 5.58,0" style="fill:#1b70ed;fill-opacity:1;fill-rule:nonzero;stroke:none" transform="matrix(1.3333333,0,0,-1.3333333,2177.3623,1510.0735)" clip-path="url(#clipPath1043)"></path><path id="path3717" d="m 0,0 v -6.424 c 0,-0.708 -0.574,-1.282 -1.283,-1.282 -0.709,0 -1.283,0.574 -1.283,1.282 V 0 c 0,0.708 0.574,1.283 1.283,1.283 C -0.574,1.283 0,0.708 0,0" style="fill:#1b70ed;fill-opacity:1;fill-rule:nonzero;stroke:none" transform="matrix(1.3333333,0,0,-1.3333333,2181.6614,1513.794)" clip-path="url(#clipPath1045)"></path><path id="path3718" d="m 0,0 c 0,-1.964 1.598,-3.563 3.563,-3.563 1.965,0 3.563,1.599 3.563,3.563 0,1.965 -1.598,3.564 -3.563,3.564 C 1.598,3.564 0,1.965 0,0 m 9.692,0 c 0,-3.379 -2.749,-6.129 -6.129,-6.129 -3.379,0 -6.129,2.75 -6.129,6.129 0,3.38 2.75,6.13 6.129,6.13 3.38,0 6.129,-2.75 6.129,-6.13" style="fill:#ab85e8;fill-opacity:1;fill-rule:nonzero;stroke:none" transform="matrix(1.3333333,0,0,-1.3333333,2163.4606,1524.3676)" clip-path="url(#clipPath1047)"></path><path id="path3719" d="m 0,0 c 0,-0.912 0.742,-1.655 1.654,-1.655 0.912,0 1.654,0.743 1.654,1.655 0,0.912 -0.742,1.654 -1.654,1.654 C 0.742,1.654 0,0.912 0,0 m 5.874,0 c 0,-2.327 -1.893,-4.22 -4.22,-4.22 -2.327,0 -4.22,1.893 -4.22,4.22 0,2.327 1.893,4.219 4.22,4.219 2.327,0 4.22,-1.892 4.22,-4.219" style="fill:#68c5ea;fill-opacity:1;fill-rule:nonzero;stroke:none" transform="matrix(1.3333333,0,0,-1.3333333,2230.6861,1523.1126)" clip-path="url(#clipPath1049)"></path><path id="path3720" d="m 0,0 c 0,-0.335 -0.131,-0.67 -0.391,-0.922 -0.509,-0.493 -1.321,-0.479 -1.813,0.03 l -3.264,3.373 c -0.494,0.506 -0.481,1.318 0.029,1.814 0.509,0.492 1.322,0.479 1.814,-0.03 L -0.361,0.892 C -0.12,0.643 0,0.322 0,0" style="fill:#ab85e8;fill-opacity:1;fill-rule:nonzero;stroke:none" transform="matrix(1.3333333,0,0,-1.3333333,2179.1774,1534.1507)" clip-path="url(#clipPath1051)"></path><path id="path3721" d="m 0,0 c 0,-0.708 -0.574,-1.283 -1.283,-1.283 h -7.802 c -0.709,0 -1.283,0.575 -1.283,1.283 0,0.708 0.574,1.283 1.283,1.283 h 7.802 C -0.574,1.283 0,0.708 0,0" style="fill:#ab85e8;fill-opacity:1;fill-rule:nonzero;stroke:none" transform="matrix(1.3333333,0,0,-1.3333333,2187.5439,1523.0948)" clip-path="url(#clipPath1053)"></path><path id="path3722" d="m 0,0 v -15.266 c 0,-0.708 -0.574,-1.283 -1.283,-1.283 -0.709,0 -1.283,0.575 -1.283,1.283 V 0 c 0,0.708 0.574,1.283 1.283,1.283 C -0.574,1.283 0,0.708 0,0" style="fill:#42a55c;fill-opacity:1;fill-rule:nonzero;stroke:none" transform="matrix(1.3333333,0,0,-1.3333333,2200.3687,1513.598)" clip-path="url(#clipPath1055)"></path><path id="path3723" d="M 0,0 C 0,-0.082 -0.008,-0.165 -0.024,-0.248 -0.161,-0.944 -0.835,-1.397 -1.53,-1.26 l -4.597,0.901 c -0.695,0.136 -1.15,0.812 -1.012,1.505 0.136,0.696 0.81,1.149 1.506,1.012 L -1.036,1.257 C -0.425,1.138 0,0.601 0,0" style="fill:#42a55c;fill-opacity:1;fill-rule:nonzero;stroke:none" transform="matrix(1.3333333,0,0,-1.3333333,2214.9063,1508.471)" clip-path="url(#clipPath1057)"></path><path id="path3724" d="M 0,0 C 0,-0.421 -0.207,-0.833 -0.587,-1.078 -1.182,-1.463 -1.976,-1.292 -2.36,-0.697 L -5.155,3.63 C -5.539,4.223 -5.37,5.019 -4.774,5.403 -4.178,5.788 -3.384,5.617 -3,5.021 L -0.205,0.695 C -0.066,0.48 0,0.239 0,0" style="fill:#42a55c;fill-opacity:1;fill-rule:nonzero;stroke:none" transform="matrix(1.3333333,0,0,-1.3333333,2208.8967,1518.2072)" clip-path="url(#clipPath1059)"></path><path id="path3725" d="m 0,0 c 0,-0.292 -0.099,-0.586 -0.303,-0.827 l -5.732,-6.785 c -0.457,-0.541 -1.266,-0.61 -1.808,-0.152 -0.541,0.456 -0.609,1.266 -0.152,1.807 l 5.732,6.785 c 0.457,0.542 1.267,0.61 1.808,0.153 C -0.154,0.727 0,0.365 0,0" style="fill:#68c5ea;fill-opacity:1;fill-rule:nonzero;stroke:none" transform="matrix(1.3333333,0,0,-1.3333333,2232.2734,1526.1784)" clip-path="url(#clipPath1061)"></path><path id="path3726" d="m 0,0 c 0,-0.328 -0.125,-0.656 -0.376,-0.907 -0.501,-0.501 -1.313,-0.501 -1.814,0 l -4.679,4.68 c -0.501,0.501 -0.501,1.313 0,1.814 0.501,0.501 1.313,0.501 1.814,0 l 4.679,-4.68 C -0.125,0.656 0,0.328 0,0" style="fill:#68c5ea;fill-opacity:1;fill-rule:nonzero;stroke:none" transform="matrix(1.3333333,0,0,-1.3333333,2231.8051,1520.4066)" clip-path="url(#clipPath1063)"></path><path id="path3727" d="m 0,0 c 0,-0.548 0.446,-0.993 0.993,-0.993 0.548,0 0.994,0.445 0.994,0.993 0,0.548 -0.446,0.994 -0.994,0.994 C 0.446,0.994 0,0.548 0,0 m 4.552,0 c 0,-1.963 -1.596,-3.559 -3.559,-3.559 -1.962,0 -3.559,1.596 -3.559,3.559 0,1.963 1.597,3.56 3.559,3.56 1.963,0 3.559,-1.597 3.559,-3.56" style="fill:#ee9b00;fill-opacity:1;fill-rule:nonzero;stroke:none" transform="matrix(1.3333333,0,0,-1.3333333,2187.5439,1523.0948)" clip-path="url(#clipPath1065)"></path><path id="path3728" d="m 0,0 v -5.874 c 0,-0.708 -0.574,-1.283 -1.283,-1.283 -0.709,0 -1.283,0.575 -1.283,1.283 V 0 c 0,0.708 0.574,1.283 1.283,1.283 C -0.574,1.283 0,0.708 0,0" style="fill:#ee9b00;fill-opacity:1;fill-rule:nonzero;stroke:none" transform="matrix(1.3333333,0,0,-1.3333333,2190.8725,1526.3254)" clip-path="url(#clipPath1067)"></path><path id="path3729" d="M 0,0 C 0,-0.162 -0.031,-0.327 -0.096,-0.486 L -2.35,-5.984 c -0.269,-0.656 -1.018,-0.969 -1.674,-0.7 -0.655,0.268 -0.97,1.018 -0.7,1.674 l 2.254,5.498 c 0.268,0.655 1.018,0.969 1.673,0.7 C -0.3,0.985 0,0.505 0,0" style="fill:#ee9b00;fill-opacity:1;fill-rule:nonzero;stroke:none" transform="matrix(1.3333333,0,0,-1.3333333,2195.1961,1512.5612)" clip-path="url(#clipPath1069)"></path><path id="path3730" d="m 0,0 c 0,-0.508 0.413,-0.92 0.92,-0.92 0.507,0 0.92,0.412 0.92,0.92 0,0.507 -0.413,0.92 -0.92,0.92 C 0.413,0.92 0,0.507 0,0 m 4.405,0 c 0,-1.923 -1.563,-3.486 -3.485,-3.486 -1.922,0 -3.486,1.563 -3.486,3.486 0,1.922 1.564,3.485 3.486,3.485 1.922,0 3.485,-1.563 3.485,-3.485" style="fill:#e63a46;fill-opacity:1;fill-rule:nonzero;stroke:none" transform="matrix(1.3333333,0,0,-1.3333333,2207.3199,1521.234)" clip-path="url(#clipPath1071)"></path><path id="path3731" d="m 0,0 c 0,-0.1 0.081,-0.181 0.181,-0.181 0.201,0 0.201,0.362 0,0.362 C 0.081,0.181 0,0.1 0,0 m 2.566,0 c 0,-1.315 -1.07,-2.385 -2.385,-2.385 -1.314,0 -2.384,1.07 -2.384,2.385 0,1.315 1.07,2.385 2.384,2.385 1.315,0 2.385,-1.07 2.385,-2.385" style="fill:#e63a46;fill-opacity:1;fill-rule:nonzero;stroke:none" transform="matrix(1.3333333,0,0,-1.3333333,2216.2342,1529.3599)" clip-path="url(#clipPath1073)"></path><path id="path3732" d="m 0,0 c 0,-0.335 -0.13,-0.669 -0.39,-0.92 -0.508,-0.494 -1.32,-0.481 -1.814,0.026 l -2.974,3.066 c -0.494,0.509 -0.482,1.321 0.027,1.814 0.509,0.493 1.321,0.481 1.814,-0.027 L -0.362,0.894 C -0.12,0.644 0,0.322 0,0" style="fill:#e63a46;fill-opacity:1;fill-rule:nonzero;stroke:none" transform="matrix(1.3333333,0,0,-1.3333333,2216.7086,1528.3043)" clip-path="url(#clipPath1075)"></path><path id="path3733" d="m 0,0 c 0,-2.815 2.29,-5.105 5.105,-5.105 2.815,0 5.105,2.29 5.105,5.105 0,2.815 -2.29,5.106 -5.105,5.106 C 2.29,5.106 0,2.815 0,0 m 12.776,0 c 0,-4.229 -3.441,-7.67 -7.671,-7.67 -4.23,0 -7.671,3.441 -7.671,7.67 0,4.23 3.441,7.671 7.671,7.671 4.23,0 7.671,-3.441 7.671,-7.671" style="fill:#42a55c;fill-opacity:1;fill-rule:nonzero;stroke:none" transform="matrix(1.3333333,0,0,-1.3333333,2191.8514,1505.0812)" clip-path="url(#clipPath1077)"></path><path id="path3734" d="m 0,0 c 0,-1.843 1.5,-3.343 3.343,-3.343 1.843,0 3.343,1.5 3.343,3.343 0,1.843 -1.5,3.342 -3.343,3.342 C 1.5,3.342 0,1.843 0,0 m 9.251,0 c 0,-3.258 -2.65,-5.909 -5.908,-5.909 -3.258,0 -5.909,2.651 -5.909,5.909 0,3.258 2.651,5.908 5.909,5.908 3.258,0 5.908,-2.65 5.908,-5.908" style="fill:#68c5ea;fill-opacity:1;fill-rule:nonzero;stroke:none" transform="matrix(1.3333333,0,0,-1.3333333,2214.5645,1510.3675)" clip-path="url(#clipPath1079)"></path><path id="path3735" d="m 2162.2546,1543.0687 c -4.8667,0.8694 -4.0814,4.9294 -4.0814,8.5534 v 0 15.66 c 0,1.08 -0.1133,2.4573 0.079,3.5093 v 0 c 0.7093,3.8573 3.64,4.056 6.7013,4.0613 v 0 h 11.9947 c 1.312,0 2.6333,0.028 3.9493,0 v 0 c 4.8934,-0.9226 4.1227,-5.3573 4.1227,-9.0346 v 0 -15.656 c 0.01,-6.604 -1.6227,-7.0974 -7.644,-7.0974 v 0 h -12.4267 c -0.5693,0 -1.1746,-0.033 -1.768,-0.033 v 0 c -0.3146,0 -0.6266,0.01 -0.9266,0.037 m 3.584,3.2734 h 12.076 c 3.1266,0 3.832,-0.632 3.832,3.0253 v 0 13.6573 h -0.844 -19.4187 v -10.2 c 0,-1.7293 -0.061,-3.4853 0.01,-5.2133 v 0 c 0.028,-0.752 0.3334,-1.008 1.048,-1.26 v 0 c 0.724,-0.068 1.4587,-0.047 2.192,-0.027 v 0 c 0.3494,0.01 0.6987,0.019 1.0467,0.019 v 0 c 0.021,0 0.043,0 0.063,0 m -4.3547,19.956 v 0 h 20.2587 c 0,1.4787 0.3706,3.648 -0.44,4.9333 v 0 c -0.8,0.5614 -1.9867,0.3534 -2.9147,0.3534 v 0 h -15.848 c -1.6947,-1.1374 -1.0587,-3.3267 -1.056,-5.284" style="fill:url(#linearGradient3741);stroke:none;stroke-width:1.33333"></path><path id="path3736" d="M 0,0 C 0.538,-0.101 1.11,0.015 1.541,-0.407 2.024,-0.881 2.046,-1.685 1.55,-2.159 1.137,-2.556 0.529,-2.486 0,-2.483 c -1.208,-0.021 -2.807,0.6 -1.74,1.93 C -1.327,-0.037 -0.599,-0.076 0,0" style="fill:#ddcef6;fill-opacity:1;fill-rule:nonzero;stroke:none" transform="matrix(1.3333333,0,0,-1.3333333,2171.5421,1567.3751)" clip-path="url(#clipPath1083)"></path><path id="path3737" d="m 2233.9626,1543.0687 h -12.1854 c -0.5226,0.01 -1.064,0.037 -1.5813,0 v 0 c -4.6813,0.82 -4.3027,4.044 -4.2973,7.808 v 0 15.6494 c 0,1.3546 -0.1307,3.092 0.097,4.392 v 0 c 0.652,3.7093 3.5667,3.9346 6.4667,3.9346 v 0 h 12.2746 c 1.3054,0 2.6214,0.036 3.9254,0 v 0 c 4.612,-1.1746 4.2,-3.9186 4.188,-7.8973 v 0 -15.096 c 0,-1.2933 0.1346,-4.1547 -0.1547,-5.256 v 0 c -0.844,-3.1947 -3.5987,-3.5693 -6.3093,-3.5693 v 0 c -0.8307,0 -1.6574,0.035 -2.424,0.035 m -14.8027,9.9467 c 0,-1.8867 -0.7387,-5.804 1.036,-6.664 v 0 l 0.236,-0.01 c 1.2467,-0.028 2.512,0.01 3.7627,0.01 v 0 h 12.08 c 3.428,-0.01 3.2853,-0.033 3.2773,3.028 v 0 10.2987 c 0,1.112 0.041,2.2386 0,3.3506 v 0 h -0.8813 -19.512 z m 0.041,17.2787 c -0.1546,-0.844 -0.047,-3.0174 -0.041,-3.996 v 0 c 0.4173,-0.045 0.8627,-0.032 1.3027,-0.019 v 0 c 0.2293,0.01 0.456,0.013 0.6786,0.011 v 0 l 18.4107,0.01 c 0.01,1.2507 0.3867,4.0067 -0.5013,4.9333 v 0 c -0.3787,0.28 -0.7747,0.3827 -1.244,0.3854 v 0 l -14.92,-0.032 c -0.416,0 -0.9267,0.052 -1.4334,0.052 v 0 c -1.024,0 -2.04,-0.1947 -2.252,-1.34" style="fill:url(#linearGradient3740);stroke:none;stroke-width:1.33333"></path><path id="path3738" d="M 0,0 C 0.639,0.015 1.41,0.131 1.935,-0.312 2.902,-1.122 2.174,-2.449 0.926,-2.483 0.315,-2.452 -0.477,-2.62 -0.991,-2.22 -1.969,-1.462 -1.477,-0.067 0,0" style="fill:#c3e8f7;fill-opacity:1;fill-rule:nonzero;stroke:none" transform="matrix(1.3333333,0,0,-1.3333333,2228.6383,1567.3751)" clip-path="url(#clipPath1087)"></path><path id="path3739" d="M 0,0 -3.487,-7.423" style="fill:none;stroke:#ab85e8;stroke-width:3;stroke-linecap:round;stroke-linejoin:round;stroke-miterlimit:10;stroke-dasharray:none;stroke-opacity:1" transform="matrix(1.3333333,0,0,-1.3333333,2177.3203,1534.3578)" clip-path="url(#clipPath1089)"></path><path id="path3740" d="M 0,0 3.797,-6.595" style="fill:none;stroke:#68c5ea;stroke-width:3;stroke-linecap:round;stroke-linejoin:round;stroke-miterlimit:10;stroke-dasharray:none;stroke-opacity:1" transform="matrix(1.3333333,0,0,-1.3333333,2223.1483,1535.4607)" clip-path="url(#clipPath1091)"></path></g></svg>