<svg xmlns:xlink="http://www.w3.org/1999/xlink" xmlns="http://www.w3.org/2000/svg" xmlns:svg="http://www.w3.org/2000/svg" id="svg1" width="242.7561" height="403.51855" viewBox="0 0 242.7561 403.51855"><defs id="defs1"><clipPath clipPathUnits="userSpaceOnUse" id="clipPath18"><path d="M 0,2016.386 H 841.89 V 0 H 0 Z" transform="translate(-790.74182,-736.86834)" id="path18"></path></clipPath><radialGradient fx="0" fy="0" cx="0" cy="0" r="1" gradientUnits="userSpaceOnUse" gradientTransform="matrix(-101.0199,-8.3504124,-8.3985691,-100.44065,614.03674,717.93866)" spreadMethod="pad" id="radialGradient23"><stop style="stop-opacity:1;stop-color:#8638f9" offset="0" id="stop20"></stop><stop style="stop-opacity:1;stop-color:#34157f" offset="0.499339" id="stop21"></stop><stop style="stop-opacity:1;stop-color:#040038" offset="0.86944" id="stop22"></stop><stop style="stop-opacity:1;stop-color:#040038" offset="1" id="stop23"></stop></radialGradient><radialGradient fx="0" fy="0" cx="0" cy="0" r="1" gradientUnits="userSpaceOnUse" gradientTransform="matrix(-81.07354,60.500385,-73.401916,-69.511314,849.14935,936.62817)" spreadMethod="pad" id="radialGradient28"><stop style="stop-opacity:1;stop-color:#68c5ea" offset="0" id="stop24"></stop><stop style="stop-opacity:1;stop-color:#68c5ea" offset="0.00611772" id="stop25"></stop><stop style="stop-opacity:1;stop-color:#2169a1" offset="0.37192" id="stop26"></stop><stop style="stop-opacity:1;stop-color:#06063e" offset="0.849186" id="stop27"></stop><stop style="stop-opacity:1;stop-color:#040038" offset="1" id="stop28"></stop></radialGradient><radialGradient fx="0" fy="0" cx="0" cy="0" r="1" gradientUnits="userSpaceOnUse" gradientTransform="matrix(-101.0199,-8.3504124,-8.3985691,-100.44065,588.07849,930.53174)" spreadMethod="pad" id="radialGradient32"><stop style="stop-opacity:1;stop-color:#ff63ba" offset="0" id="stop29"></stop><stop style="stop-opacity:1;stop-color:#471a5b" offset="0.604869" id="stop30"></stop><stop style="stop-opacity:1;stop-color:#040038" offset="0.86944" id="stop31"></stop><stop style="stop-opacity:1;stop-color:#040038" offset="1" id="stop32"></stop></radialGradient><radialGradient fx="0" fy="0" cx="0" cy="0" r="1" gradientUnits="userSpaceOnUse" gradientTransform="matrix(-101.0199,-8.3504124,-8.3985691,-100.44065,817.89282,733.3031)" spreadMethod="pad" id="radialGradient36"><stop style="stop-opacity:1;stop-color:#f97203" offset="0" id="stop33"></stop><stop style="stop-opacity:1;stop-color:#3d1a2c" offset="0.556651" id="stop34"></stop><stop style="stop-opacity:1;stop-color:#040038" offset="0.86944" id="stop35"></stop><stop style="stop-opacity:1;stop-color:#040038" offset="1" id="stop36"></stop></radialGradient><radialGradient fx="0" fy="0" cx="0" cy="0" r="1" gradientUnits="userSpaceOnUse" gradientTransform="matrix(-101.0199,-8.3504124,-8.3985691,-100.44065,718.70978,1082.061)" spreadMethod="pad" id="radialGradient40"><stop style="stop-opacity:1;stop-color:#00d76f" offset="0" id="stop37"></stop><stop style="stop-opacity:1;stop-color:#032d44" offset="0.578476" id="stop38"></stop><stop style="stop-opacity:1;stop-color:#040038" offset="0.86944" id="stop39"></stop><stop style="stop-opacity:1;stop-color:#040038" offset="1" id="stop40"></stop></radialGradient><radialGradient xlink:href="#radialGradient40" id="radialGradient3892" gradientUnits="userSpaceOnUse" gradientTransform="matrix(-134.6932,11.133883,-11.198092,133.92086,2184.7392,1647.9666)" cx="0" cy="0" fx="0" fy="0" r="1" spreadMethod="pad"></radialGradient><radialGradient xlink:href="#radialGradient36" id="radialGradient3893" gradientUnits="userSpaceOnUse" gradientTransform="matrix(-134.6932,11.133883,-11.198092,133.92086,2316.9832,2112.9772)" cx="0" cy="0" fx="0" fy="0" r="1" spreadMethod="pad"></radialGradient><radialGradient xlink:href="#radialGradient32" id="radialGradient3894" gradientUnits="userSpaceOnUse" gradientTransform="matrix(-134.6932,11.133883,-11.198092,133.92086,2010.5641,1850.0056)" cx="0" cy="0" fx="0" fy="0" r="1" spreadMethod="pad"></radialGradient><radialGradient xlink:href="#radialGradient28" id="radialGradient3895" gradientUnits="userSpaceOnUse" gradientTransform="matrix(-108.09805,-80.667178,-97.869219,92.68175,2358.6586,1841.8771)" cx="0" cy="0" fx="0" fy="0" r="1" spreadMethod="pad"></radialGradient><radialGradient xlink:href="#radialGradient23" id="radialGradient3896" gradientUnits="userSpaceOnUse" gradientTransform="matrix(-134.6932,11.133883,-11.198092,133.92086,2045.1751,2133.4631)" cx="0" cy="0" fx="0" fy="0" r="1" spreadMethod="pad"></radialGradient></defs><g id="layer-MC0" transform="translate(-2062.75,-1704.7048)"><path id="path3756" d="m 0,0 h -144.981 c -10.241,0 -18.543,8.302 -18.543,18.544 v 265.551 c 0,10.241 8.302,18.544 18.543,18.544 H 0 c 10.241,0 18.543,-8.303 18.543,-18.544 V 18.544 C 18.543,8.302 10.241,0 0,0" style="fill:#040038;fill-opacity:1;fill-rule:nonzero;stroke:none" transform="matrix(1.3333333,0,0,-1.3333333,2280.7819,2108.2235)" clip-path="url(#clipPath18)"></path><path id="path3758" d="m 2062.7502,2083.4999 c 0,13.6547 11.0693,24.7227 24.724,24.7227 v 0 h 85.5013 c -6.2853,-23.3133 -18.876,-45.6853 -37.6707,-64.372 v 0 c -20.8706,-20.7507 -46.324,-33.8973 -72.5546,-39.2973 v 0 z" style="fill:url(#radialGradient3896);stroke:none;stroke-width:1.33333"></path><path id="path3759" d="m 2231.4155,1849.2986 c 3.064,51.9333 32.8427,95.5013 74.0907,116.184 v 0 -236.0533 c 0,-3.9147 -0.9094,-7.6174 -2.5294,-10.9067 v 0 c -45.1573,23.0613 -74.924,73.784 -71.5613,130.776" style="fill:url(#radialGradient3895);stroke:none;stroke-width:1.33333"></path><path id="path3760" d="m 2062.7502,1974.6426 c 16.54,-5.7893 31.8893,-15.1373 44.9173,-28.0893 v 0 c 49.7773,-49.492 46.6547,-132.8387 -6.9747,-186.16 v 0 c -11.472,-11.4067 -24.3346,-20.5187 -37.9426,-27.3054 v 0 z" style="fill:url(#radialGradient3894);stroke:none;stroke-width:1.33333"></path><path id="path3761" d="m 2219.8795,2016.4306 c -24.9253,24.7813 -36.5867,58.0533 -35.284,91.792 v 0 h 96.1867 c 13.6546,0 24.724,-11.068 24.724,-24.7227 v 0 -102.24 c -31.6134,0.3747 -62.3387,12.016 -85.6267,35.1707" style="fill:url(#radialGradient3893);stroke:none;stroke-width:1.33333"></path><path id="path3762" d="m 2087.4742,1704.7053 c -5.5854,0 -10.7374,1.8506 -14.876,4.9746 v 0 c 6.0146,9.904 13.3546,19.2907 22.012,27.8987 v 0 c 53.628,53.3213 137.456,56.4267 187.232,6.9347 v 0 c 8.288,-8.24 15.1093,-17.416 20.4746,-27.24 v 0 c -4.2453,-7.5027 -12.2986,-12.568 -21.5346,-12.568 v 0 z" style="fill:url(#radialGradient3892);stroke:none;stroke-width:1.33333"></path></g></svg>