<?xml version="1.0" encoding="UTF-8" standalone="no"?>
<!-- Generator: Adobe Illustrator 16.0.0, SVG Export Plug-In . SVG Version: 6.00 Build 0)  -->

<svg
   xmlns:dc="http://purl.org/dc/elements/1.1/"
   xmlns:cc="http://creativecommons.org/ns#"
   xmlns:rdf="http://www.w3.org/1999/02/22-rdf-syntax-ns#"
   xmlns:svg="http://www.w3.org/2000/svg"
   xmlns="http://www.w3.org/2000/svg"
   xmlns:sodipodi="http://sodipodi.sourceforge.net/DTD/sodipodi-0.dtd"
   xmlns:inkscape="http://www.inkscape.org/namespaces/inkscape"
   version="1.1"
   id="Livello_1"
   x="0px"
   y="0px"
   width="721.46399"
   height="207.48"
   viewBox="0 0 721.464 207.48001"
   xml:space="preserve"
   inkscape:version="0.48.3.1 r9886"
   sodipodi:docname="logo-ictdays-2015.svg"
   inkscape:export-filename="C:\Users\mirian.ayala\Desktop\logo ICT Days coccinella.png"
   inkscape:export-xdpi="90"
   inkscape:export-ydpi="90"><metadata
   id="metadata39"><rdf:RDF><cc:Work
       rdf:about=""><dc:format>image/svg+xml</dc:format><dc:type
         rdf:resource="http://purl.org/dc/dcmitype/StillImage" /><dc:title /></cc:Work></rdf:RDF></metadata><defs
   id="defs37">
	
	
	
	
	
	
	
</defs><sodipodi:namedview
   pagecolor="#ffffff"
   bordercolor="#666666"
   borderopacity="1"
   objecttolerance="10"
   gridtolerance="10"
   guidetolerance="10"
   inkscape:pageopacity="0"
   inkscape:pageshadow="2"
   inkscape:window-width="1855"
   inkscape:window-height="1028"
   id="namedview35"
   showgrid="false"
   inkscape:zoom="0.8759966"
   inkscape:cx="-260.81315"
   inkscape:cy="5.7482943"
   inkscape:window-x="65"
   inkscape:window-y="24"
   inkscape:window-maximized="1"
   inkscape:current-layer="Livello_1" />
<g
   id="g3"
   transform="translate(0,1.1921999)">
	<path
   style="fill:#1f1e21"
   d="m 247.643,44.988 c -6.607,2.432 -13.915,-1.013 -16.314,-7.699 -2.402,-6.693 0.999,-14.088 7.608,-16.526 6.603,-2.439 13.908,1.012 16.31,7.706 2.405,6.686 -1.002,14.088 -7.604,16.519"
   id="path5"
   inkscape:connector-curvature="0" />
</g>
<rect
   x="180.36536"
   y="-154.22369"
   transform="matrix(0.64969541,0.76019463,-0.76019463,0.64969541,0,0)"
   style="fill:#1f1e21"
   width="7.0000496"
   height="49.152348"
   id="rect7" />
<g
   id="g9"
   transform="translate(0,1.1921999)">
	<path
   style="fill:#1f1e21"
   d="m 232.266,181.093 c -3.513,-6.166 -1.429,-14.053 4.66,-17.613 6.082,-3.545 13.871,-1.446 17.391,4.719 3.51,6.165 1.422,14.052 -4.663,17.598 -6.09,3.574 -13.875,1.446 -17.388,-4.704"
   id="path11"
   inkscape:connector-curvature="0" />
</g>
<rect
   x="241.45074"
   y="-27.799938"
   transform="matrix(0.76019463,0.64969541,-0.64969541,0.76019463,0,0)"
   style="fill:#1f1e21"
   width="49.154346"
   height="7.0000496"
   id="rect13" />
<path
   inkscape:connector-curvature="0"
   id="path17"
   d="m 229.784,104.9512 c 0,-34.624 -25.641,-62.692 -57.268,-62.692 -0.655,0 -1.286,0.086 -1.929,0.115 C 153.456,18.1122 126.687,2.4171999 96.505,2.4171999 44.778,2.4171999 2.839,48.3292 2.839,104.9502 c 0,56.625 41.939,102.529 93.666,102.529 30.181,0 56.951,-15.687 74.082,-39.942 0.643,0.029 1.273,0.116 1.929,0.116 31.627,0 57.268,-28.078 57.268,-62.702"
   style="fill:#e2ea49;fill-opacity:1" /><path
   inkscape:connector-curvature="0"
   id="path19"
   d="m 84.932,104.9512 c 0,-6.462 5.181,-11.722 11.574,-11.722 6.396,0 11.573,5.26 11.573,11.722 0,6.476 -5.177,11.722 -11.573,11.722 -6.394,0 -11.574,-5.246 -11.574,-11.722"
   style="fill:#1f1e21" /><path
   inkscape:connector-curvature="0"
   id="path21"
   d="m 131.766,104.9512 c 0,-6.469 5.177,-11.722 11.574,-11.722 6.393,0 11.574,5.253 11.574,11.722 0,6.476 -5.181,11.722 -11.574,11.722 -6.397,0 -11.574,-5.246 -11.574,-11.722"
   style="fill:#1f1e21" /><path
   inkscape:connector-curvature="0"
   id="path23"
   d="m 68.697,104.9512 -64.62,16.715 c -2.178,-10.456 -2.178,-20.565 0,-33.423"
   style="fill:#1f1e21" /><path
   inkscape:connector-curvature="0"
   id="path25"
   d="m 178.6,104.9512 c 0,-6.469 5.178,-11.722 11.574,-11.722 6.393,0 11.574,5.253 11.574,11.722 0,6.476 -5.181,11.722 -11.574,11.722 -6.396,0 -11.574,-5.246 -11.574,-11.722"
   style="fill:#1f1e21" /><path
   inkscape:connector-curvature="0"
   id="path27"
   d="m 280.698,67.1292 h -10.582 v 86.614 h 10.582 v -86.614 z m 72.088,86.273 v -8.733 c -5.299,0.47 -13.473,1.056 -19.808,1.056 -16.122,0 -23.955,-6.765 -23.955,-28.111 v -14.349 c 0,-21.338 7.833,-27.989 23.955,-27.989 6.335,0 14.509,0.702 19.808,1.165 v -8.727 c -3.455,-0.585 -11.975,-1.989 -19.808,-1.989 -19.577,0 -34.526,7.105 -34.526,37.54 v 14.349 c 0,30.434 14.95,37.768 34.526,37.768 7.834,0 16.354,-1.394 19.808,-1.98 m 71.854,-76.722 v -9.551 h -63.319 v 9.551 h 26.372 v 77.077 h 10.58 v -77.077 h 26.367 z m 91.342,40.702 v -14.117 c 0,-21.924 -10.933,-36.136 -37.532,-36.136 h -23.943 v 86.628 h 23.943 c 27.525,0 37.532,-14.335 37.532,-36.375 m -10.701,0 c 0,19.711 -9.327,26.939 -27.758,26.939 h -12.445 v -67.641 h 12.445 c 18.431,0 27.758,6.882 27.758,26.585 v 14.117 z m 89.247,36.375 -27.988,-86.628 h -14.616 l -27.989,86.628 h 10.709 l 9.096,-28.335 h 30.631 l 8.871,28.335 h 11.286 z m -23.379,-38.119 h -24.298 l 8.169,-25.304 c 1.505,-4.667 2.417,-9.088 3.459,-14.226 h 1.158 c 0.911,5.138 1.954,9.559 3.443,14.226 l 8.069,25.304 z m 86.245,-48.509 H 646.57 l -15.434,28.56 c -2.186,4.088 -5.29,9.335 -6.911,13.763 h -0.68 c -1.722,-4.552 -4.37,-9.675 -6.563,-13.763 l -15.543,-28.56 h -11.628 l 28.554,52.345 v 34.284 h 10.462 v -34.284 l 28.567,-52.345 z m 62.062,64.717 c 0,-12.134 -5.752,-18.777 -17.72,-24.146 l -14.747,-6.534 c -9.103,-4.081 -11.52,-7.808 -11.52,-14.464 0,-8.98 6.332,-11.657 17.627,-11.657 8.293,0 18.09,0.933 23.257,1.512 v -8.495 c -3.105,-0.818 -13.351,-2.337 -23.604,-2.337 -18.77,0 -27.974,6.758 -27.974,20.977 0,12.019 6.208,18.322 17.604,23.445 l 14.639,6.657 c 9.096,4.189 11.628,8.155 11.628,15.043 0,10.138 -5.876,14.227 -17.503,14.227 -9.683,0 -17.627,-0.702 -24.414,-1.513 v 8.379 c 3.11,0.817 14.044,2.442 24.414,2.442 18.886,0 28.313,-8.499 28.313,-23.536"
   style="fill:#1f1e21" />

</svg>